<svg width="270" height="270" viewBox="0 0 270 270" fill="none" xmlns="http://www.w3.org/2000/svg">
<path d="M213.047 143.438C217.707 143.438 221.484 139.66 221.484 135C221.484 130.34 217.707 126.562 213.047 126.562C208.387 126.562 204.609 130.34 204.609 135C204.609 139.66 208.387 143.438 213.047 143.438Z" fill="#FF0000" fill-opacity="0.5"/>
<path d="M189.844 194.062C196.834 194.062 202.5 188.396 202.5 181.406C202.5 174.416 196.834 168.75 189.844 168.75C182.854 168.75 177.188 174.416 177.188 181.406C177.188 188.396 182.854 194.062 189.844 194.062Z" fill="#FF0000" fill-opacity="0.5"/>
<path d="M172.969 88.5937C159.434 88.5767 146.074 91.6612 133.917 97.6105C121.759 103.56 111.126 112.216 102.834 122.914C94.5426 133.612 88.8122 146.067 86.0832 159.325C83.3541 172.582 83.699 186.288 87.0912 199.391C90.4835 212.495 96.833 224.646 105.652 234.914C114.472 245.181 125.526 253.291 137.968 258.622C150.409 263.952 163.907 266.361 177.424 265.663C190.941 264.966 204.119 261.18 215.945 254.597C213.206 252.178 210.98 249.235 209.396 245.941C207.812 242.648 206.904 239.071 206.724 235.421C206.544 231.771 207.096 228.121 208.348 224.688C209.6 221.255 211.527 218.107 214.014 215.43C216.502 212.753 219.5 210.6 222.832 209.1C226.164 207.599 229.763 206.78 233.416 206.692C237.069 206.603 240.704 207.247 244.104 208.585C247.505 209.923 250.604 211.927 253.218 214.481C259.534 200.995 262.341 186.131 261.378 171.269C260.414 156.408 255.711 142.031 247.706 129.473C239.701 116.915 228.652 106.583 215.587 99.4366C202.521 92.29 187.861 88.5603 172.969 88.5937ZM126.563 143.437C126.563 141.769 127.057 140.137 127.985 138.75C128.912 137.362 130.229 136.281 131.771 135.642C133.313 135.004 135.009 134.837 136.646 135.162C138.283 135.488 139.786 136.291 140.966 137.471C142.146 138.651 142.95 140.155 143.275 141.791C143.601 143.428 143.434 145.125 142.795 146.666C142.157 148.208 141.075 149.526 139.688 150.453C138.3 151.38 136.669 151.875 135 151.875C132.762 151.875 130.616 150.986 129.034 149.404C127.452 147.821 126.563 145.675 126.563 143.437ZM139.219 240.469C137.55 240.469 135.919 239.974 134.531 239.047C133.144 238.12 132.062 236.802 131.424 235.26C130.785 233.718 130.618 232.022 130.943 230.385C131.269 228.748 132.073 227.245 133.253 226.065C134.433 224.885 135.936 224.081 137.573 223.756C139.209 223.43 140.906 223.597 142.448 224.236C143.989 224.875 145.307 225.956 146.234 227.344C147.161 228.731 147.656 230.362 147.656 232.031C147.656 234.269 146.767 236.415 145.185 237.997C143.603 239.58 141.457 240.469 139.219 240.469ZM189.844 202.5C185.672 202.5 181.594 201.263 178.125 198.945C174.656 196.627 171.952 193.333 170.356 189.478C168.759 185.624 168.341 181.383 169.155 177.291C169.969 173.199 171.978 169.441 174.928 166.491C177.878 163.541 181.637 161.532 185.729 160.718C189.82 159.904 194.062 160.322 197.916 161.918C201.77 163.515 205.065 166.218 207.383 169.687C209.7 173.156 210.938 177.234 210.938 181.406C210.931 186.999 208.706 192.36 204.752 196.314C200.798 200.269 195.436 202.493 189.844 202.5ZM213.047 151.875C209.709 151.875 206.447 150.885 203.672 149.031C200.897 147.177 198.734 144.541 197.456 141.458C196.179 138.374 195.845 134.981 196.496 131.708C197.147 128.434 198.755 125.428 201.115 123.068C203.475 120.708 206.481 119.1 209.755 118.449C213.028 117.798 216.421 118.132 219.505 119.41C222.588 120.687 225.224 122.85 227.078 125.625C228.932 128.4 229.922 131.662 229.922 135C229.922 139.476 228.144 143.768 224.979 146.932C221.815 150.097 217.522 151.875 213.047 151.875Z" fill="#FF0000" fill-opacity="0.5"/>
<path d="M234.14 215.156C230.08 215.16 226.127 216.465 222.863 218.881C219.599 221.296 217.195 224.695 216.005 228.577C214.815 232.46 214.902 236.621 216.251 240.451C217.601 244.281 220.144 247.577 223.505 249.855C233.842 242.62 242.527 233.273 248.986 222.434C247.225 220.175 244.973 218.346 242.401 217.085C239.83 215.824 237.005 215.165 234.14 215.156Z" fill="#FF0000" fill-opacity="0.5"/>
<path d="M194.51 72.6342L198.247 42.7106C198.358 41.6146 198.036 40.5188 197.349 39.6573C196.663 38.7958 195.666 38.237 194.573 38.1004C193.48 37.9638 192.377 38.2601 191.5 38.9261C190.622 39.5921 190.04 40.5748 189.878 41.6644L186.119 71.7188H182.71C179.239 59.173 172.783 47.6537 163.894 38.1445C155.005 28.6353 143.947 21.4188 131.663 17.1113C131.71 15.4309 131.42 13.7581 130.808 12.1924C130.196 10.6267 129.275 9.20005 128.101 7.99728C126.926 6.79452 125.522 5.8402 123.971 5.19109C122.421 4.54197 120.755 4.21131 119.074 4.21877H91.8633C90.1824 4.21079 88.5171 4.54076 86.9663 5.18905C85.4155 5.83734 84.0108 6.79074 82.8357 7.9926C81.6606 9.19445 80.7391 10.6202 80.1259 12.1853C79.5127 13.7503 79.2203 15.4226 79.2661 17.1028C66.9224 21.3214 55.8044 28.5085 46.89 38.032C37.9757 47.5555 31.538 59.1236 28.1433 71.7188H24.8189L21.06 41.6644C20.8975 40.5748 20.3153 39.5921 19.4379 38.9261C18.5604 38.2601 17.4572 37.9638 16.3641 38.1004C15.271 38.237 14.2747 38.7958 13.5882 39.6573C12.9016 40.5188 12.5793 41.6146 12.69 42.7106L16.4278 72.6342C14.0744 73.5676 12.0551 75.1853 10.6307 77.2783C9.20626 79.3713 8.4423 81.8433 8.4375 84.375V101.25C8.4375 104.607 9.77092 107.826 12.1444 110.199C14.5179 112.573 17.7371 113.906 21.0938 113.906H28.2234C33.0244 131.381 43.5958 146.718 58.2188 157.423C51.1763 159.443 44.9814 163.697 40.5679 169.545C36.1544 175.393 33.7615 182.517 33.75 189.844V210.938C33.75 212.056 34.1945 213.129 34.9856 213.921C35.7768 214.712 36.8499 215.156 37.9688 215.156H172.969C174.088 215.156 175.161 214.712 175.952 213.921C176.743 213.129 177.188 212.056 177.188 210.938V189.844C177.176 182.517 174.783 175.393 170.37 169.545C165.956 163.697 159.761 159.443 152.719 157.423C167.342 146.718 177.913 131.381 182.714 113.906H189.844C193.2 113.906 196.42 112.573 198.793 110.199C201.167 107.826 202.5 104.607 202.5 101.25V84.375C202.495 81.8433 201.731 79.3713 200.307 77.2783C198.882 75.1853 196.863 73.5676 194.51 72.6342ZM91.8633 12.6563H119.074C119.743 12.6561 120.402 12.8148 120.997 13.1193C121.592 13.4237 122.106 13.8653 122.497 14.4074C122.888 14.9496 123.145 15.577 123.246 16.2378C123.347 16.8986 123.289 17.5739 123.078 18.2081L120.264 26.6456C119.984 27.4854 119.448 28.2158 118.73 28.7337C118.012 29.2516 117.15 29.5306 116.265 29.5313H94.673C93.7879 29.5306 92.9255 29.2516 92.2077 28.7337C91.49 28.2158 90.9533 27.4854 90.6736 26.6456L87.8597 18.2081C87.6485 17.5739 87.591 16.8986 87.6919 16.2378C87.7929 15.577 88.0494 14.9496 88.4404 14.4074C88.8314 13.8653 89.3457 13.4237 89.9408 13.1193C90.5359 12.8148 91.1948 12.6561 91.8633 12.6563ZM81.3164 25.3125L82.6495 29.3119C83.4899 31.8351 85.1039 34.0295 87.2622 35.5835C89.4205 37.1375 92.0134 37.9721 94.673 37.9688H116.265C118.921 37.9685 121.51 37.1323 123.665 35.5786C125.82 34.0248 127.432 31.8324 128.271 29.3119L129.604 25.3125C139.233 28.7995 148.009 34.2976 155.347 41.441C162.686 48.5843 168.418 57.2089 172.163 66.7406C157.908 54.3881 133.595 46.4063 105.469 46.4063C77.2031 46.4063 52.8019 54.4767 38.572 66.9347C42.2651 57.317 48.0008 48.6151 55.3833 41.4292C62.7658 34.2433 71.6194 28.7446 81.3333 25.3125H81.3164ZM177.188 92.8125C177.188 113.392 144.345 130.781 105.469 130.781C66.593 130.781 33.75 113.392 33.75 92.8125C33.75 72.2335 66.593 54.8438 105.469 54.8438C144.345 54.8438 177.188 72.2335 177.188 92.8125ZM21.0938 105.469C19.9749 105.469 18.9018 105.024 18.1106 104.233C17.3195 103.442 16.875 102.369 16.875 101.25V84.375C16.875 83.2561 17.3195 82.1831 18.1106 81.3919C18.9018 80.6007 19.9749 80.1563 21.0938 80.1563H26.3081C25.6476 84.3427 25.3147 88.5743 25.3125 92.8125C25.3423 97.0538 25.7105 101.286 26.4136 105.469H21.0938ZM50.9034 170.775L63.7959 183.663C64.9742 184.837 65.9082 186.232 66.544 187.769C67.1797 189.305 67.5047 190.953 67.5 192.615V193.219L42.4111 186.633C43.2009 180.484 46.2233 174.84 50.9034 170.775ZM42.1875 195.328L67.5 201.973V206.719H42.1875V195.328ZM97.0312 206.719V194.063H113.906V206.719H97.0312ZM143.438 206.719V201.956L168.75 195.328V206.719H143.438ZM168.526 186.65L143.438 193.219V192.599C143.434 190.936 143.76 189.288 144.396 187.752C145.033 186.215 145.967 184.82 147.146 183.646L160.034 170.758C164.721 174.832 167.745 180.489 168.526 186.65ZM143.438 164.531C146.575 164.536 149.684 165.127 152.605 166.274L141.18 177.698C139.215 179.652 137.657 181.977 136.596 184.538C135.535 187.098 134.993 189.844 135 192.615V206.719H122.344V189.844C122.344 188.725 121.899 187.652 121.108 186.861C120.317 186.069 119.244 185.625 118.125 185.625H92.8125C91.6936 185.625 90.6206 186.069 89.8294 186.861C89.0382 187.652 88.5938 188.725 88.5938 189.844V206.719H75.9375V192.615C75.9454 189.844 75.4036 187.099 74.3435 184.538C73.2833 181.978 71.7259 179.653 69.7612 177.698L58.3327 166.274C61.2532 165.127 64.3624 164.536 67.5 164.531H69.8878C80.9281 170.079 93.1128 172.969 105.469 172.969C117.825 172.969 130.009 170.079 141.05 164.531H143.438ZM105.469 164.531C91.0337 164.509 76.9408 160.134 65.0301 151.979C53.1194 143.824 43.9444 132.267 38.7028 118.817C52.9495 131.203 77.2917 139.219 105.469 139.219C133.646 139.219 157.988 131.203 172.235 118.817C166.993 132.267 157.818 143.824 145.907 151.979C133.997 160.134 119.904 164.509 105.469 164.531ZM194.062 101.25C194.062 102.369 193.618 103.442 192.827 104.233C192.036 105.024 190.963 105.469 189.844 105.469H184.524C185.969 97.0951 185.992 88.5376 184.591 80.1563H189.844C190.963 80.1563 192.036 80.6007 192.827 81.3919C193.618 82.1831 194.062 83.2561 194.062 84.375V101.25Z" fill="#005189"/>
</svg>
