<svg width="71" height="71" viewBox="0 0 71 71" fill="none" xmlns="http://www.w3.org/2000/svg">
<path d="M69.8906 53.25V66.5625C69.8906 67.4452 69.54 68.2917 68.9158 68.9158C68.2917 69.54 67.4452 69.8906 66.5625 69.8906H31.0625C30.1798 69.8906 29.3333 69.54 28.7092 68.9158C28.085 68.2917 27.7344 67.4452 27.7344 66.5625V53.25C27.7344 52.9558 27.8513 52.6736 28.0593 52.4656C28.2674 52.2575 28.5495 52.1406 28.8438 52.1406H36.6094V55.4688C36.6094 55.763 36.7263 56.0451 36.9343 56.2532C37.1424 56.4612 37.4245 56.5781 37.7188 56.5781C38.013 56.5781 38.2951 56.4612 38.5032 56.2532C38.7112 56.0451 38.8281 55.763 38.8281 55.4688V52.1406H58.7969V55.4688C58.7969 55.763 58.9138 56.0451 59.1218 56.2532C59.3299 56.4612 59.612 56.5781 59.9062 56.5781C60.2005 56.5781 60.4827 56.4612 60.6907 56.2532C60.8987 56.0451 61.0156 55.763 61.0156 55.4688V52.1406H68.7812C69.0755 52.1406 69.3577 52.2575 69.5657 52.4656C69.7737 52.6736 69.8906 52.9558 69.8906 53.25ZM69.8906 42.1562V48.8125C69.8906 49.1067 69.7737 49.3889 69.5657 49.5969C69.3577 49.805 69.0755 49.9219 68.7812 49.9219H61.0156V46.5938C61.0156 46.2995 60.8987 46.0174 60.6907 45.8093C60.4827 45.6013 60.2005 45.4844 59.9062 45.4844C59.612 45.4844 59.3299 45.6013 59.1218 45.8093C58.9138 46.0174 58.7969 46.2995 58.7969 46.5938V49.9219H38.8281V46.5938C38.8281 46.2995 38.7112 46.0174 38.5032 45.8093C38.2951 45.6013 38.013 45.4844 37.7188 45.4844C37.4245 45.4844 37.1424 45.6013 36.9343 45.8093C36.7263 46.0174 36.6094 46.2995 36.6094 46.5938V49.9219H28.8438C28.5495 49.9219 28.2674 49.805 28.0593 49.5969C27.8513 49.3889 27.7344 49.1067 27.7344 48.8125V42.1562C27.7344 41.2736 28.085 40.4271 28.7092 39.8029C29.3333 39.1788 30.1798 38.8281 31.0625 38.8281H42.1562V35.5C42.1562 34.6173 42.5069 33.7708 43.131 33.1467C43.7552 32.5225 44.6017 32.1719 45.4844 32.1719H52.1406C53.0233 32.1719 53.8698 32.5225 54.494 33.1467C55.1181 33.7708 55.4688 34.6173 55.4688 35.5V38.8281H66.5625C67.4452 38.8281 68.2917 39.1788 68.9158 39.8029C69.54 40.4271 69.8906 41.2736 69.8906 42.1562ZM53.25 35.5C53.25 35.2058 53.1331 34.9236 52.9251 34.7156C52.717 34.5075 52.4348 34.3906 52.1406 34.3906H45.4844C45.1902 34.3906 44.908 34.5075 44.6999 34.7156C44.4919 34.9236 44.375 35.2058 44.375 35.5V38.8281H53.25V35.5Z" fill="#FF0000" fill-opacity="0.5"/>
<path d="M55.4688 54.3594H54.3594V4.4375C54.3594 3.55483 54.0087 2.7083 53.3846 2.08416C52.7604 1.46002 51.9139 1.10938 51.0312 1.10938H24.4062C23.5236 1.10938 22.6771 1.46002 22.0529 2.08416C21.4288 2.7083 21.0781 3.55483 21.0781 4.4375V18.8594H6.65625C5.77358 18.8594 4.92705 19.21 4.30291 19.8342C3.67877 20.4583 3.32812 21.3048 3.32812 22.1875V54.3594H2.21875C1.92453 54.3594 1.64235 54.4763 1.4343 54.6843C1.22626 54.8923 1.10938 55.1745 1.10938 55.4688C1.10938 55.763 1.22626 56.0452 1.4343 56.2532C1.64235 56.4612 1.92453 56.5781 2.21875 56.5781H55.4688C55.763 56.5781 56.0452 56.4612 56.2532 56.2532C56.4612 56.0452 56.5781 55.763 56.5781 55.4688C56.5781 55.1745 56.4612 54.8923 56.2532 54.6843C56.0452 54.4763 55.763 54.3594 55.4688 54.3594ZM23.2969 4.4375C23.2969 4.14328 23.4138 3.8611 23.6218 3.65305C23.8299 3.44501 24.112 3.32812 24.4062 3.32812H51.0312C51.3255 3.32812 51.6077 3.44501 51.8157 3.65305C52.0237 3.8611 52.1406 4.14328 52.1406 4.4375V54.3594H34.3906V22.1875C34.3906 21.3048 34.04 20.4583 33.4158 19.8342C32.7917 19.21 31.9452 18.8594 31.0625 18.8594H23.2969V4.4375ZM5.54688 22.1875C5.54688 21.8933 5.66376 21.6111 5.8718 21.4031C6.07985 21.195 6.36203 21.0781 6.65625 21.0781H31.0625C31.3567 21.0781 31.6389 21.195 31.8469 21.4031C32.055 21.6111 32.1719 21.8933 32.1719 22.1875V54.3594H5.54688V22.1875ZM15.5312 27.7344H9.98438C9.69015 27.7344 9.40798 27.6175 9.19993 27.4094C8.99188 27.2014 8.875 26.9192 8.875 26.625C8.875 26.3308 8.99188 26.0486 9.19993 25.8406C9.40798 25.6325 9.69015 25.5156 9.98438 25.5156H15.5312C15.8255 25.5156 16.1076 25.6325 16.3157 25.8406C16.5237 26.0486 16.6406 26.3308 16.6406 26.625C16.6406 26.9192 16.5237 27.2014 16.3157 27.4094C16.1076 27.6175 15.8255 27.7344 15.5312 27.7344ZM27.7344 27.7344H22.1875C21.8933 27.7344 21.6111 27.6175 21.4031 27.4094C21.195 27.2014 21.0781 26.9192 21.0781 26.625C21.0781 26.3308 21.195 26.0486 21.4031 25.8406C21.6111 25.6325 21.8933 25.5156 22.1875 25.5156H27.7344C28.0286 25.5156 28.3108 25.6325 28.5188 25.8406C28.7269 26.0486 28.8438 26.3308 28.8438 26.625C28.8438 26.9192 28.7269 27.2014 28.5188 27.4094C28.3108 27.6175 28.0286 27.7344 27.7344 27.7344ZM15.5312 34.3906H9.98438C9.69015 34.3906 9.40798 34.2737 9.19993 34.0657C8.99188 33.8577 8.875 33.5755 8.875 33.2812C8.875 32.987 8.99188 32.7049 9.19993 32.4968C9.40798 32.2888 9.69015 32.1719 9.98438 32.1719H15.5312C15.8255 32.1719 16.1076 32.2888 16.3157 32.4968C16.5237 32.7049 16.6406 32.987 16.6406 33.2812C16.6406 33.5755 16.5237 33.8577 16.3157 34.0657C16.1076 34.2737 15.8255 34.3906 15.5312 34.3906ZM27.7344 34.3906H22.1875C21.8933 34.3906 21.6111 34.2737 21.4031 34.0657C21.195 33.8577 21.0781 33.5755 21.0781 33.2812C21.0781 32.987 21.195 32.7049 21.4031 32.4968C21.6111 32.2888 21.8933 32.1719 22.1875 32.1719H27.7344C28.0286 32.1719 28.3108 32.2888 28.5188 32.4968C28.7269 32.7049 28.8438 32.987 28.8438 33.2812C28.8438 33.5755 28.7269 33.8577 28.5188 34.0657C28.3108 34.2737 28.0286 34.3906 27.7344 34.3906ZM15.5312 41.0469H9.98438C9.69015 41.0469 9.40798 40.93 9.19993 40.7219C8.99188 40.5139 8.875 40.2317 8.875 39.9375C8.875 39.6433 8.99188 39.3611 9.19993 39.1531C9.40798 38.945 9.69015 38.8281 9.98438 38.8281H15.5312C15.8255 38.8281 16.1076 38.945 16.3157 39.1531C16.5237 39.3611 16.6406 39.6433 16.6406 39.9375C16.6406 40.2317 16.5237 40.5139 16.3157 40.7219C16.1076 40.93 15.8255 41.0469 15.5312 41.0469ZM27.7344 41.0469H22.1875C21.8933 41.0469 21.6111 40.93 21.4031 40.7219C21.195 40.5139 21.0781 40.2317 21.0781 39.9375C21.0781 39.6433 21.195 39.3611 21.4031 39.1531C21.6111 38.945 21.8933 38.8281 22.1875 38.8281H27.7344C28.0286 38.8281 28.3108 38.945 28.5188 39.1531C28.7269 39.3611 28.8438 39.6433 28.8438 39.9375C28.8438 40.2317 28.7269 40.5139 28.5188 40.7219C28.3108 40.93 28.0286 41.0469 27.7344 41.0469ZM15.5312 47.7031H9.98438C9.69015 47.7031 9.40798 47.5862 9.19993 47.3782C8.99188 47.1702 8.875 46.888 8.875 46.5938C8.875 46.2995 8.99188 46.0173 9.19993 45.8093C9.40798 45.6013 9.69015 45.4844 9.98438 45.4844H15.5312C15.8255 45.4844 16.1076 45.6013 16.3157 45.8093C16.5237 46.0173 16.6406 46.2995 16.6406 46.5938C16.6406 46.888 16.5237 47.1702 16.3157 47.3782C16.1076 47.5862 15.8255 47.7031 15.5312 47.7031ZM27.7344 47.7031H22.1875C21.8933 47.7031 21.6111 47.5862 21.4031 47.3782C21.195 47.1702 21.0781 46.888 21.0781 46.5938C21.0781 46.2995 21.195 46.0173 21.4031 45.8093C21.6111 45.6013 21.8933 45.4844 22.1875 45.4844H27.7344C28.0286 45.4844 28.3108 45.6013 28.5188 45.8093C28.7269 46.0173 28.8438 46.2995 28.8438 46.5938C28.8438 46.888 28.7269 47.1702 28.5188 47.3782C28.3108 47.5862 28.0286 47.7031 27.7344 47.7031ZM29.9531 9.98438V14.4219C29.9531 14.7161 29.8362 14.9983 29.6282 15.2063C29.4201 15.4144 29.138 15.5312 28.8438 15.5312C28.5495 15.5312 28.2674 15.4144 28.0593 15.2063C27.8513 14.9983 27.7344 14.7161 27.7344 14.4219V9.98438C27.7344 9.69015 27.8513 9.40798 28.0593 9.19993C28.2674 8.99188 28.5495 8.875 28.8438 8.875C29.138 8.875 29.4201 8.99188 29.6282 9.19993C29.8362 9.40798 29.9531 9.69015 29.9531 9.98438ZM32.1719 14.4219V9.98438C32.1719 9.69015 32.2888 9.40798 32.4968 9.19993C32.7049 8.99188 32.987 8.875 33.2812 8.875C33.5755 8.875 33.8577 8.99188 34.0657 9.19993C34.2737 9.40798 34.3906 9.69015 34.3906 9.98438V14.4219C34.3906 14.7161 34.2737 14.9983 34.0657 15.2063C33.8577 15.4144 33.5755 15.5312 33.2812 15.5312C32.987 15.5312 32.7049 15.4144 32.4968 15.2063C32.2888 14.9983 32.1719 14.7161 32.1719 14.4219ZM36.6094 14.4219V9.98438C36.6094 9.69015 36.7263 9.40798 36.9343 9.19993C37.1423 8.99188 37.4245 8.875 37.7188 8.875C38.013 8.875 38.2952 8.99188 38.5032 9.19993C38.7112 9.40798 38.8281 9.69015 38.8281 9.98438V14.4219C38.8281 14.7161 38.7112 14.9983 38.5032 15.2063C38.2952 15.4144 38.013 15.5312 37.7188 15.5312C37.4245 15.5312 37.1423 15.4144 36.9343 15.2063C36.7263 14.9983 36.6094 14.7161 36.6094 14.4219ZM41.0469 14.4219V9.98438C41.0469 9.69015 41.1638 9.40798 41.3718 9.19993C41.5798 8.99188 41.862 8.875 42.1562 8.875C42.4505 8.875 42.7327 8.99188 42.9407 9.19993C43.1487 9.40798 43.2656 9.69015 43.2656 9.98438V14.4219C43.2656 14.7161 43.1487 14.9983 42.9407 15.2063C42.7327 15.4144 42.4505 15.5312 42.1562 15.5312C41.862 15.5312 41.5798 15.4144 41.3718 15.2063C41.1638 14.9983 41.0469 14.7161 41.0469 14.4219ZM45.4844 14.4219V9.98438C45.4844 9.69015 45.6013 9.40798 45.8093 9.19993C46.0173 8.99188 46.2995 8.875 46.5938 8.875C46.888 8.875 47.1702 8.99188 47.3782 9.19993C47.5862 9.40798 47.7031 9.69015 47.7031 9.98438V14.4219C47.7031 14.7161 47.5862 14.9983 47.3782 15.2063C47.1702 15.4144 46.888 15.5312 46.5938 15.5312C46.2995 15.5312 46.0173 15.4144 45.8093 15.2063C45.6013 14.9983 45.4844 14.7161 45.4844 14.4219ZM36.6094 25.5156V21.0781C36.6094 20.7839 36.7263 20.5017 36.9343 20.2937C37.1423 20.0856 37.4245 19.9688 37.7188 19.9688C38.013 19.9688 38.2952 20.0856 38.5032 20.2937C38.7112 20.5017 38.8281 20.7839 38.8281 21.0781V25.5156C38.8281 25.8098 38.7112 26.092 38.5032 26.3001C38.2952 26.5081 38.013 26.625 37.7188 26.625C37.4245 26.625 37.1423 26.5081 36.9343 26.3001C36.7263 26.092 36.6094 25.8098 36.6094 25.5156ZM41.0469 25.5156V21.0781C41.0469 20.7839 41.1638 20.5017 41.3718 20.2937C41.5798 20.0856 41.862 19.9688 42.1562 19.9688C42.4505 19.9688 42.7327 20.0856 42.9407 20.2937C43.1487 20.5017 43.2656 20.7839 43.2656 21.0781V25.5156C43.2656 25.8098 43.1487 26.092 42.9407 26.3001C42.7327 26.5081 42.4505 26.625 42.1562 26.625C41.862 26.625 41.5798 26.5081 41.3718 26.3001C41.1638 26.092 41.0469 25.8098 41.0469 25.5156ZM45.4844 25.5156V21.0781C45.4844 20.7839 45.6013 20.5017 45.8093 20.2937C46.0173 20.0856 46.2995 19.9688 46.5938 19.9688C46.888 19.9688 47.1702 20.0856 47.3782 20.2937C47.5862 20.5017 47.7031 20.7839 47.7031 21.0781V25.5156C47.7031 25.8098 47.5862 26.092 47.3782 26.3001C47.1702 26.5081 46.888 26.625 46.5938 26.625C46.2995 26.625 46.0173 26.5081 45.8093 26.3001C45.6013 26.092 45.4844 25.8098 45.4844 25.5156ZM36.6094 36.6094V32.1719C36.6094 31.8777 36.7263 31.5955 36.9343 31.3874C37.1423 31.1794 37.4245 31.0625 37.7188 31.0625C38.013 31.0625 38.2952 31.1794 38.5032 31.3874C38.7112 31.5955 38.8281 31.8777 38.8281 32.1719V36.6094C38.8281 36.9036 38.7112 37.1858 38.5032 37.3938C38.2952 37.6019 38.013 37.7188 37.7188 37.7188C37.4245 37.7188 37.1423 37.6019 36.9343 37.3938C36.7263 37.1858 36.6094 36.9036 36.6094 36.6094ZM41.0469 36.6094V32.1719C41.0469 31.8777 41.1638 31.5955 41.3718 31.3874C41.5798 31.1794 41.862 31.0625 42.1562 31.0625C42.4505 31.0625 42.7327 31.1794 42.9407 31.3874C43.1487 31.5955 43.2656 31.8777 43.2656 32.1719V36.6094C43.2656 36.9036 43.1487 37.1858 42.9407 37.3938C42.7327 37.6019 42.4505 37.7188 42.1562 37.7188C41.862 37.7188 41.5798 37.6019 41.3718 37.3938C41.1638 37.1858 41.0469 36.9036 41.0469 36.6094ZM45.4844 36.6094V32.1719C45.4844 31.8777 45.6013 31.5955 45.8093 31.3874C46.0173 31.1794 46.2995 31.0625 46.5938 31.0625C46.888 31.0625 47.1702 31.1794 47.3782 31.3874C47.5862 31.5955 47.7031 31.8777 47.7031 32.1719V36.6094C47.7031 36.9036 47.5862 37.1858 47.3782 37.3938C47.1702 37.6019 46.888 37.7188 46.5938 37.7188C46.2995 37.7188 46.0173 37.6019 45.8093 37.3938C45.6013 37.1858 45.4844 36.9036 45.4844 36.6094ZM36.6094 47.7031V43.2656C36.6094 42.9714 36.7263 42.6892 36.9343 42.4812C37.1423 42.2731 37.4245 42.1562 37.7188 42.1562C38.013 42.1562 38.2952 42.2731 38.5032 42.4812C38.7112 42.6892 38.8281 42.9714 38.8281 43.2656V47.7031C38.8281 47.9973 38.7112 48.2795 38.5032 48.4876C38.2952 48.6956 38.013 48.8125 37.7188 48.8125C37.4245 48.8125 37.1423 48.6956 36.9343 48.4876C36.7263 48.2795 36.6094 47.9973 36.6094 47.7031ZM41.0469 47.7031V43.2656C41.0469 42.9714 41.1638 42.6892 41.3718 42.4812C41.5798 42.2731 41.862 42.1562 42.1562 42.1562C42.4505 42.1562 42.7327 42.2731 42.9407 42.4812C43.1487 42.6892 43.2656 42.9714 43.2656 43.2656V47.7031C43.2656 47.9973 43.1487 48.2795 42.9407 48.4876C42.7327 48.6956 42.4505 48.8125 42.1562 48.8125C41.862 48.8125 41.5798 48.6956 41.3718 48.4876C41.1638 48.2795 41.0469 47.9973 41.0469 47.7031ZM45.4844 47.7031V43.2656C45.4844 42.9714 45.6013 42.6892 45.8093 42.4812C46.0173 42.2731 46.2995 42.1562 46.5938 42.1562C46.888 42.1562 47.1702 42.2731 47.3782 42.4812C47.5862 42.6892 47.7031 42.9714 47.7031 43.2656V47.7031C47.7031 47.9973 47.5862 48.2795 47.3782 48.4876C47.1702 48.6956 46.888 48.8125 46.5938 48.8125C46.2995 48.8125 46.0173 48.6956 45.8093 48.4876C45.6013 48.2795 45.4844 47.9973 45.4844 47.7031Z" fill="#005189"/>
</svg>
