<svg width="84" height="84" viewBox="0 0 84 84" fill="none" xmlns="http://www.w3.org/2000/svg">
<path d="M64.6998 38.0598H35.0452L49.8712 50.7688L64.6998 38.0598Z" fill="#FF0000" fill-opacity="0.5"/>
<path d="M77.3549 67.7972C81.7877 61.0009 83.5451 52.8031 82.2878 44.7869C81.0304 36.7707 76.8474 29.5047 70.5465 24.392C64.2457 19.2793 56.2739 16.6825 48.1706 17.1032C40.0673 17.5238 32.4073 20.932 26.6697 26.6696C20.9321 32.4072 17.5239 40.0673 17.1032 48.1706C16.6826 56.2739 19.2794 64.2456 24.3921 70.5465C29.5048 76.8473 36.7708 81.0303 44.7869 82.2877C52.8031 83.5451 61.0009 81.7877 67.7973 77.3548L80.8842 82.5917C81.1227 82.6872 81.384 82.7105 81.6357 82.6589C81.8874 82.6073 82.1184 82.4829 82.3 82.3013C82.4817 82.1196 82.606 81.8886 82.6577 81.6369C82.7093 81.3853 82.6859 81.124 82.5905 80.8855L77.3549 67.7972ZM69.5626 63C69.5626 63.3481 69.4243 63.682 69.1782 63.9281C68.932 64.1742 68.5982 64.3125 68.2501 64.3125H31.5001C31.152 64.3125 30.8181 64.1742 30.572 63.9281C30.3259 63.682 30.1876 63.3481 30.1876 63V36.75C30.2009 36.4062 30.3434 36.08 30.5867 35.8367C30.8301 35.5934 31.1562 35.4508 31.5001 35.4375H68.2501C68.5934 35.4523 68.9187 35.5953 69.1617 35.8383C69.4048 36.0814 69.5478 36.4067 69.5626 36.75V63Z" fill="#FF0000" fill-opacity="0.5"/>
<path d="M50.7255 53.4935C50.4878 53.6969 50.1852 53.8086 49.8724 53.8086C49.5595 53.8086 49.257 53.6969 49.0192 53.4935L32.8125 39.6007V61.6875H66.9375V39.6007L50.7255 53.4935Z" fill="#FF0000" fill-opacity="0.5"/>
<path d="M63 1.3125H5.25C4.20571 1.3125 3.20419 1.72734 2.46577 2.46577C1.72734 3.20419 1.3125 4.20571 1.3125 5.25V65.625C1.31256 65.8845 1.38956 66.1383 1.53379 66.354C1.67801 66.5698 1.88297 66.738 2.12277 66.8373C2.36256 66.9366 2.62642 66.9626 2.88098 66.912C3.13554 66.8614 3.36938 66.7364 3.55294 66.5529L13.6684 56.4375H63C64.0443 56.4375 65.0458 56.0227 65.7842 55.2842C66.5227 54.5458 66.9375 53.5443 66.9375 52.5V5.25C66.9375 4.20571 66.5227 3.20419 65.7842 2.46577C65.0458 1.72734 64.0443 1.3125 63 1.3125ZM64.3125 52.5C64.3125 52.8481 64.1742 53.1819 63.9281 53.4281C63.6819 53.6742 63.3481 53.8125 63 53.8125H13.125C12.7769 53.8126 12.4431 53.9509 12.1971 54.1971L3.9375 62.4566V5.25C3.9375 4.9019 4.07578 4.56806 4.32192 4.32192C4.56806 4.07578 4.9019 3.9375 5.25 3.9375H63C63.3481 3.9375 63.6819 4.07578 63.9281 4.32192C64.1742 4.56806 64.3125 4.9019 64.3125 5.25V52.5Z" fill="#005189"/>
<path d="M57.75 17.0625H10.5C10.1519 17.0625 9.81806 17.2008 9.57192 17.4469C9.32578 17.6931 9.1875 18.0269 9.1875 18.375C9.1875 18.7231 9.32578 19.0569 9.57192 19.3031C9.81806 19.5492 10.1519 19.6875 10.5 19.6875H57.75C58.0981 19.6875 58.4319 19.5492 58.6781 19.3031C58.9242 19.0569 59.0625 18.7231 59.0625 18.375C59.0625 18.0269 58.9242 17.6931 58.6781 17.4469C58.4319 17.2008 58.0981 17.0625 57.75 17.0625Z" fill="#005189"/>
<path d="M57.75 27.5625H10.5C10.1519 27.5625 9.81806 27.7008 9.57192 27.9469C9.32578 28.1931 9.1875 28.5269 9.1875 28.875C9.1875 29.2231 9.32578 29.5569 9.57192 29.8031C9.81806 30.0492 10.1519 30.1875 10.5 30.1875H57.75C58.0981 30.1875 58.4319 30.0492 58.6781 29.8031C58.9242 29.5569 59.0625 29.2231 59.0625 28.875C59.0625 28.5269 58.9242 28.1931 58.6781 27.9469C58.4319 27.7008 58.0981 27.5625 57.75 27.5625Z" fill="#005189"/>
<path d="M57.75 38.0625H10.5C10.1519 38.0625 9.81806 38.2008 9.57192 38.4469C9.32578 38.6931 9.1875 39.0269 9.1875 39.375C9.1875 39.7231 9.32578 40.0569 9.57192 40.3031C9.81806 40.5492 10.1519 40.6875 10.5 40.6875H57.75C58.0981 40.6875 58.4319 40.5492 58.6781 40.3031C58.9242 40.0569 59.0625 39.7231 59.0625 39.375C59.0625 39.0269 58.9242 38.6931 58.6781 38.4469C58.4319 38.2008 58.0981 38.0625 57.75 38.0625Z" fill="#005189"/>
</svg>
