<svg width="74" height="74" viewBox="0 0 74 74" fill="none" xmlns="http://www.w3.org/2000/svg">
<path d="M60.7609 0H13.2391C5.93879 0 0 5.93879 0 13.2391V60.7624C0 68.0612 5.93879 74 13.2391 74H60.7609C68.0612 74 74 68.0612 74 60.7609V13.2391C74 5.93879 68.0612 0 60.7609 0ZM69.6641 60.7609C69.6641 65.6692 65.6707 69.6641 60.7609 69.6641H13.2391C8.32934 69.6641 4.33594 65.6707 4.33594 60.7609V13.2391C4.33594 8.32934 8.32934 4.33594 13.2391 4.33594H60.7609C65.6692 4.33594 69.6641 8.32934 69.6641 13.2391V60.7609Z" fill="#FF0000" fill-opacity="0.7"/>
<path d="M62.543 16.2556H29.5234C28.6158 13.5601 26.0648 11.6118 23.0672 11.6118C20.0697 11.6118 17.5187 13.5601 16.611 16.2556H11.457C10.2603 16.2556 9.28906 17.2269 9.28906 18.4236C9.28906 19.6203 10.2603 20.5915 11.457 20.5915H16.611C17.5187 23.2871 20.0697 25.2353 23.0672 25.2353C26.0648 25.2353 28.6158 23.2871 29.5234 20.5915H62.543C63.7398 20.5915 64.711 19.6203 64.711 18.4236C64.711 17.2269 63.7412 16.2556 62.543 16.2556ZM23.0672 20.8994C21.7014 20.8994 20.5914 19.7879 20.5914 18.4236C20.5914 17.0592 21.7029 15.9478 23.0672 15.9478C24.4316 15.9478 25.543 17.0592 25.543 18.4236C25.543 19.7879 24.433 20.8994 23.0672 20.8994Z" fill="#005189" fill-opacity="0.7"/>
<path d="M62.543 34.8318H57.3891C56.4814 32.1363 53.9304 30.188 50.9329 30.188C47.9353 30.188 45.3843 32.1363 44.4766 34.8318H11.457C10.2603 34.8318 9.28906 35.803 9.28906 36.9997C9.28906 38.1965 10.2603 39.1677 11.457 39.1677H44.4766C45.3843 41.8632 47.9353 43.8115 50.9329 43.8115C53.9304 43.8115 56.4814 41.8632 57.3891 39.1677H62.543C63.7398 39.1677 64.711 38.1965 64.711 36.9997C64.711 35.803 63.7412 34.8318 62.543 34.8318ZM50.9329 39.4756C49.567 39.4756 48.457 38.3641 48.457 36.9997C48.457 35.6354 49.5685 34.5239 50.9329 34.5239C52.2972 34.5239 53.4087 35.6354 53.4087 36.9997C53.4087 38.3641 52.2987 39.4756 50.9329 39.4756Z" fill="#005189" fill-opacity="0.7"/>
<path d="M62.543 53.4087H38.8125C37.9048 50.7132 35.3538 48.7649 32.3563 48.7649C29.3587 48.7649 26.8077 50.7132 25.9 53.4087H11.457C10.2603 53.4087 9.28906 54.3799 9.28906 55.5767C9.28906 56.7734 10.2603 57.7446 11.457 57.7446H25.9C26.8077 60.4401 29.3587 62.3884 32.3563 62.3884C35.3538 62.3884 37.9048 60.4401 38.8125 57.7446H62.5445C63.7412 57.7446 64.7125 56.7734 64.7125 55.5767C64.7125 54.3799 63.7412 53.4087 62.543 53.4087ZM32.3563 58.0539C30.9904 58.0539 29.8804 56.9425 29.8804 55.5781C29.8804 54.2137 30.9919 53.1023 32.3563 53.1023C33.7206 53.1023 34.8321 54.2123 34.8321 55.5767C34.8321 56.941 33.7206 58.0539 32.3563 58.0539Z" fill="#005189" fill-opacity="0.7"/>
</svg>
