<svg width="68" height="68" viewBox="0 0 68 68" fill="none" xmlns="http://www.w3.org/2000/svg">
<path d="M52.3121 54.3267C51.9266 54.327 51.5568 54.4803 51.2843 54.7531C51.0117 55.0258 50.8586 55.3956 50.8586 55.7812V59.569C50.8586 59.7599 50.8962 59.9489 50.9693 60.1253C51.0423 60.3016 51.1494 60.4619 51.2844 60.5968C51.4193 60.7318 51.5796 60.8389 51.7559 60.9119C51.9323 60.9849 52.1213 61.0225 52.3121 61.0225C52.503 61.0225 52.692 60.9849 52.8684 60.9119C53.0447 60.8389 53.205 60.7318 53.3399 60.5968C53.4749 60.4619 53.582 60.3016 53.655 60.1253C53.728 59.9489 53.7656 59.7599 53.7656 59.569V55.7812C53.7656 55.3956 53.6125 55.0258 53.34 54.7531C53.0674 54.4803 52.6977 54.327 52.3121 54.3267Z" fill="#FF0000" fill-opacity="0.5"/>
<path d="M35.8593 45.2285C35.4739 45.2288 35.1043 45.382 34.8318 45.6546C34.5593 45.9271 34.406 46.2966 34.4058 46.682V50.4688C34.4058 50.8543 34.5589 51.224 34.8315 51.4966C35.1041 51.7691 35.4738 51.9223 35.8593 51.9223C36.2448 51.9223 36.6145 51.7691 36.887 51.4966C37.1596 51.224 37.3128 50.8543 37.3128 50.4688V46.682C37.3125 46.2966 37.1593 45.9271 36.8867 45.6546C36.6142 45.382 36.2447 45.2288 35.8593 45.2285Z" fill="#FF0000" fill-opacity="0.5"/>
<path d="M63.75 29.1518H24.2441C23.117 29.1518 22.036 29.5996 21.2389 30.3966C20.4419 31.1936 19.9941 32.2746 19.9941 33.4018V63.75C19.9941 64.8772 20.4419 65.9582 21.2389 66.7552C22.036 67.5522 23.117 68 24.2441 68H63.75C64.8772 68 65.9582 67.5522 66.7552 66.7552C67.5522 65.9582 68 64.8772 68 63.75V33.4018C68 32.2746 67.5522 31.1936 66.7552 30.3966C65.9582 29.5996 64.8772 29.1518 63.75 29.1518ZM58.5948 58.7371H55.8875V59.568C55.8875 60.0379 55.795 60.5033 55.6151 60.9374C55.4353 61.3716 55.1717 61.7661 54.8394 62.0984C54.5071 62.4307 54.1126 62.6943 53.6784 62.8741C53.2443 63.0539 52.7789 63.1465 52.309 63.1465C51.8391 63.1465 51.3737 63.0539 50.9396 62.8741C50.5054 62.6943 50.1109 62.4307 49.7786 62.0984C49.4463 61.7661 49.1827 61.3716 49.0029 60.9374C48.8231 60.5033 48.7305 60.0379 48.7305 59.568V58.7371H29.393C29.1112 58.7371 28.841 58.6252 28.6417 58.4259C28.4425 58.2267 28.3305 57.9564 28.3305 57.6746C28.3305 57.3928 28.4425 57.1226 28.6417 56.9233C28.841 56.7241 29.1112 56.6121 29.393 56.6121H48.7305V55.7812C48.7305 55.3113 48.8231 54.846 49.0029 54.4118C49.1827 53.9776 49.4463 53.5832 49.7786 53.2509C50.1109 52.9186 50.5054 52.655 50.9396 52.4751C51.3737 52.2953 51.8391 52.2027 52.309 52.2027C52.7789 52.2027 53.2443 52.2953 53.6784 52.4751C54.1126 52.655 54.5071 52.9186 54.8394 53.2509C55.1717 53.5832 55.4353 53.9776 55.6151 54.4118C55.795 54.846 55.8875 55.3113 55.8875 55.7812V56.6132H58.5916C58.8734 56.6132 59.1436 56.7251 59.3429 56.9244C59.5421 57.1236 59.6541 57.3939 59.6541 57.6757C59.6541 57.9575 59.5421 58.2277 59.3429 58.427C59.1436 58.6262 58.8734 58.7382 58.5916 58.7382L58.5948 58.7371ZM58.5948 49.6389H39.4379V50.4687C39.4379 51.4178 39.0609 52.328 38.3898 52.9991C37.7187 53.6702 36.8085 54.0472 35.8594 54.0472C34.9103 54.0472 34.0001 53.6702 33.329 52.9991C32.6579 52.328 32.2809 51.4178 32.2809 50.4687V49.6379H29.3983C29.1165 49.6379 28.8463 49.5259 28.647 49.3267C28.4478 49.1274 28.3358 48.8572 28.3358 48.5754C28.3358 48.2936 28.4478 48.0233 28.647 47.8241C28.8463 47.6248 29.1165 47.5129 29.3983 47.5129H32.2809V46.6809C32.2809 45.7319 32.6579 44.8217 33.329 44.1506C34.0001 43.4795 34.9103 43.1024 35.8594 43.1024C36.8085 43.1024 37.7187 43.4795 38.3898 44.1506C39.0609 44.8217 39.4379 45.7319 39.4379 46.6809V47.5129H58.5948C58.8766 47.5129 59.1468 47.6248 59.3461 47.8241C59.5453 48.0233 59.6573 48.2936 59.6573 48.5754C59.6573 48.8572 59.5453 49.1274 59.3461 49.3267C59.1468 49.5259 58.8766 49.6379 58.5948 49.6379V49.6389ZM58.5948 40.5397H50.1872V41.3716C50.1954 41.8467 50.1089 42.3186 49.9328 42.7599C49.7566 43.2011 49.4944 43.6029 49.1613 43.9418C48.8283 44.2806 48.4311 44.5497 47.9929 44.7335C47.5547 44.9172 47.0844 45.0118 46.6092 45.0118C46.1341 45.0118 45.6637 44.9172 45.2256 44.7335C44.7874 44.5497 44.3902 44.2806 44.0571 43.9418C43.7241 43.6029 43.4618 43.2011 43.2857 42.7599C43.1096 42.3186 43.0231 41.8467 43.0313 41.3716V40.5397H29.3983C29.1165 40.5397 28.8463 40.4277 28.647 40.2285C28.4478 40.0292 28.3358 39.759 28.3358 39.4772C28.3358 39.1954 28.4478 38.9251 28.647 38.7259C28.8463 38.5266 29.1165 38.4147 29.3983 38.4147H43.0313V37.5827C43.0231 37.1077 43.1096 36.6358 43.2857 36.1945C43.4618 35.7532 43.7241 35.3514 44.0571 35.0126C44.3902 34.6738 44.7874 34.4046 45.2256 34.2209C45.6637 34.0372 46.1341 33.9426 46.6092 33.9426C47.0844 33.9426 47.5547 34.0372 47.9929 34.2209C48.4311 34.4046 48.8283 34.6738 49.1613 35.0126C49.4944 35.3514 49.7566 35.7532 49.9328 36.1945C50.1089 36.6358 50.1954 37.1077 50.1872 37.5827V38.4147H58.5948C58.8766 38.4147 59.1468 38.5266 59.3461 38.7259C59.5453 38.9251 59.6573 39.1954 59.6573 39.4772C59.6573 39.759 59.5453 40.0292 59.3461 40.2285C59.1468 40.4277 58.8766 40.5397 58.5948 40.5397Z" fill="#FF0000" fill-opacity="0.5"/>
<path d="M46.6087 36.125C46.4176 36.1253 46.2284 36.1632 46.052 36.2366C45.8756 36.3101 45.7153 36.4175 45.5804 36.5529C45.4456 36.6883 45.3387 36.8489 45.2659 37.0256C45.1931 37.2023 45.1559 37.3916 45.1563 37.5828V41.3716C45.151 41.5657 45.1847 41.7589 45.2554 41.9398C45.3261 42.1207 45.4322 42.2856 45.5677 42.4247C45.7031 42.5639 45.8651 42.6745 46.044 42.75C46.2229 42.8255 46.4151 42.8644 46.6093 42.8644C46.8034 42.8644 46.9957 42.8255 47.1746 42.75C47.3535 42.6745 47.5154 42.5639 47.6508 42.4247C47.7863 42.2856 47.8925 42.1207 47.9631 41.9398C48.0338 41.7589 48.0675 41.5657 48.0622 41.3716V37.5828C48.0627 37.3916 48.0254 37.2022 47.9525 37.0254C47.8797 36.8486 47.7727 36.6879 47.6377 36.5525C47.5027 36.4171 47.3423 36.3097 47.1658 36.2363C46.9892 36.163 46.7999 36.1251 46.6087 36.125Z" fill="#FF0000" fill-opacity="0.5"/>
<path d="M43.2969 6.2305V1.0625C43.2969 0.780707 43.1849 0.510456 42.9857 0.311199C42.7864 0.111942 42.5162 0 42.2344 0L1.0625 0C0.780707 0 0.510456 0.111942 0.311199 0.311199C0.111942 0.510456 0 0.780707 0 1.0625L0 6.2305C0.000285437 6.67477 0.0932227 7.11409 0.272876 7.52042C0.452529 7.92674 0.714949 8.29113 1.04338 8.59031L15.9375 22.1181V45.6493C15.9375 45.8183 15.9779 45.985 16.0552 46.1353C16.1326 46.2857 16.2447 46.4154 16.3823 46.5137C16.5199 46.612 16.6789 46.676 16.8462 46.7005C17.0136 46.725 17.1843 46.7092 17.3442 46.6544L26.6411 43.4669C26.8507 43.3951 27.0326 43.2596 27.1613 43.0794C27.2901 42.8992 27.3594 42.6833 27.3594 42.4618V22.1181L42.2535 8.59031C42.5784 8.28833 42.8385 7.92338 43.0178 7.51769C43.1972 7.112 43.2921 6.67405 43.2969 6.2305ZM41.1719 2.125V6.10938H2.125V2.125H41.1719ZM25.9303 20.5445C25.7113 20.744 25.5362 20.9869 25.4164 21.2579C25.2966 21.5288 25.2346 21.8218 25.2344 22.1181V41.7031L18.0625 44.1618V22.1181C18.0625 21.8219 18.0005 21.5291 17.8807 21.2583C17.7609 20.9875 17.5857 20.7447 17.3666 20.5456L3.81331 8.23438H39.4846L25.9303 20.5445Z" fill="#005189"/>
</svg>
