<svg width="69" height="76" viewBox="0 0 69 76" fill="none" xmlns="http://www.w3.org/2000/svg">
<g clip-path="url(#clip0)">
<path opacity="0.5" d="M18.591 15.0827L14.106 10.6356C13.0665 9.60392 11.682 9.0354 10.209 9.0354C8.73599 9.0354 7.35449 9.60392 6.31349 10.6356L3.06299 13.8596C0.92399 15.9808 0.92399 19.4334 3.06299 21.5561L7.55699 26.0122C7.99649 26.4486 8.57249 26.6653 9.14999 26.6653C9.72449 26.6653 10.3005 26.4486 10.74 26.0152C11.619 25.1468 17.7105 19.0995 18.5895 18.2326C19.4685 17.3627 19.47 15.9526 18.591 15.0827Z" fill="#005189"/>
<path opacity="0.5" d="M34.5 0.445312C33.258 0.445312 32.25 1.44281 32.25 2.67188V9.79688C32.25 11.0259 33.258 12.0234 34.5 12.0234C35.742 12.0234 36.75 11.0259 36.75 9.79688V2.67188C36.75 1.44281 35.742 0.445312 34.5 0.445312Z" fill="#005189"/>
<path opacity="0.5" d="M40.05 0H28.95C27.708 0 26.7 0.9975 26.7 2.22656C26.7 3.45563 27.708 4.45312 28.95 4.45312H40.05C41.292 4.45312 42.3 3.45563 42.3 2.22656C42.3 0.9975 41.292 0 40.05 0Z" fill="#FF0000"/>
<path opacity="0.5" d="M34.5 0H28.95C27.708 0 26.7 0.9975 26.7 2.22656C26.7 3.45563 27.708 4.45312 28.95 4.45312H34.5V0Z" fill="#FF0000"/>
<path opacity="0.5" d="M58.896 17.6064C52.38 11.145 43.716 7.58691 34.5 7.58691C25.284 7.58691 16.62 11.145 10.1025 17.6064C3.588 24.0679 0 32.658 0 41.7929C0 50.9277 3.588 59.5193 10.1025 65.9793C16.62 72.4407 25.284 76.0003 34.5 76.0003C43.716 76.0003 52.38 72.4407 58.8975 65.9793C65.412 59.5193 69 50.9292 69 41.7929C69 32.6565 65.412 24.0679 58.896 17.6064Z" fill="#FF0000"/>
<path opacity="0.5" d="M34.5 7.58691C25.284 7.58691 16.62 11.145 10.104 17.6079C3.588 24.0679 0 32.658 0 41.7929C0 50.9277 3.588 59.5193 10.1025 65.9793C16.62 72.4407 25.284 76.0003 34.5 76.0003V7.58691Z" fill="#FF0000"/>
<path d="M34.5001 16.1113C20.2171 16.1113 8.59814 27.6316 8.59814 41.794C8.59814 55.9564 20.2171 67.4752 34.5001 67.4752C48.7831 67.4752 60.4021 55.9549 60.4021 41.7925C60.4021 27.6301 48.7831 16.1113 34.5001 16.1113Z" fill="#96D1D9"/>
<path d="M34.5001 16.1113C20.2171 16.1113 8.59814 27.6316 8.59814 41.794C8.59814 55.9564 20.2171 67.4752 34.5001 67.4752V16.1113Z" fill="#F4F2E6"/>
<g opacity="0.5">
<path opacity="0.5" d="M34.5 21.6733C35.742 21.6733 36.75 20.6758 36.75 19.4467V16.2093C36.0075 16.1455 35.2575 16.1113 34.5 16.1113C33.7425 16.1113 32.9925 16.1455 32.25 16.2093V19.4467C32.25 20.6758 33.2565 21.6733 34.5 21.6733Z" fill="#005189"/>
<path opacity="0.5" d="M34.5 61.9133C33.258 61.9133 32.25 62.9108 32.25 64.1399V67.3773C32.9925 67.4411 33.7425 67.4753 34.5 67.4753C35.2575 67.4753 36.0075 67.4411 36.75 67.3773V64.1399C36.75 62.9108 35.742 61.9133 34.5 61.9133Z" fill="#005189"/>
<path opacity="0.5" d="M60.3045 39.5662H57.0825C55.8405 39.5662 54.8325 40.5637 54.8325 41.7927C54.8325 43.0218 55.8405 44.0193 57.0825 44.0193H60.3045C60.369 43.2845 60.4035 42.5423 60.4035 41.7927C60.4035 41.0431 60.3675 40.3009 60.3045 39.5662Z" fill="#005189"/>
<path opacity="0.5" d="M14.1674 41.7927C14.1674 40.5637 13.1594 39.5662 11.9174 39.5662H8.69544C8.63094 40.3009 8.59644 41.0431 8.59644 41.7927C8.59644 42.5423 8.63094 43.2845 8.69544 44.0193H11.9174C13.1609 44.0193 14.1674 43.0233 14.1674 41.7927Z" fill="#005189"/>
<path opacity="0.5" d="M40.05 40.5084H36.876V31.5027C36.876 30.2736 35.868 29.2761 34.626 29.2761C33.384 29.2761 32.376 30.2736 32.376 31.5027V42.735C32.376 43.964 33.384 44.9615 34.626 44.9615H40.05C41.292 44.9615 42.3 43.964 42.3 42.735C42.3 41.5059 41.292 40.5084 40.05 40.5084Z" fill="#005189"/>
</g>
</g>
<defs>
<clipPath id="clip0">
<rect width="69" height="76" fill="white"/>
</clipPath>
</defs>
</svg>
