<svg width="84" height="70" viewBox="0 0 84 70" fill="none" xmlns="http://www.w3.org/2000/svg">
<g clip-path="url(#clip0)">
<path d="M69.3805 0C62.9998 0 57.9583 5.11236 57.9583 11.4831C57.9583 17.8539 63.0786 22.8876 69.3805 22.8876C75.6825 22.8876 80.8816 17.7753 80.8816 11.4045C80.8816 5.03371 75.7613 0 69.3805 0ZM69.3805 20.3708C64.4178 20.3708 60.4003 16.3596 60.4003 11.4045C60.4003 6.44944 64.4965 2.51685 69.3805 2.51685C74.3433 2.51685 78.3608 6.52809 78.3608 11.4831C78.3608 16.4382 74.3433 20.3708 69.3805 20.3708Z" fill="#FF0000" fill-opacity="0.7"/>
<path d="M73.0238 13.2137C72.945 12.9778 72.945 12.8205 72.7875 12.5845C72.7087 12.4272 72.6299 12.1912 72.4724 12.0339C72.3148 11.8766 72.236 11.7193 72.0785 11.562C71.9209 11.4047 71.7634 11.2474 71.5271 11.1688C71.3695 11.0115 71.1332 10.9328 70.9756 10.8542C70.7393 10.7755 70.5818 10.6182 70.3454 10.5396C70.1091 10.4609 69.8728 10.3823 69.7153 10.3036C69.6365 10.3036 69.4789 10.225 69.4002 10.1463C69.3214 10.0677 69.1638 10.0677 69.0851 9.989C69.0063 9.91035 68.8487 9.91035 68.77 9.8317C68.6912 9.75305 68.6124 9.6744 68.5336 9.59574C68.4549 9.51709 68.3761 9.43844 68.3761 9.28114C68.2973 9.20249 68.2973 9.04518 68.2973 8.96653C68.2973 8.80923 68.2973 8.73058 68.2973 8.57327C68.2973 8.49462 68.3761 8.33732 68.3761 8.25867C68.4549 8.18001 68.4549 8.02271 68.5336 7.94406C68.6124 7.86541 68.6912 7.78676 68.77 7.7081C68.8487 7.62945 69.0063 7.5508 69.1638 7.5508C69.3214 7.47215 69.4002 7.47215 69.5577 7.47215C69.6365 7.47215 69.7152 7.47215 69.794 7.47215C69.8728 7.47215 69.9516 7.47215 70.0303 7.47215C70.1879 7.47215 70.2667 7.47215 70.4242 7.5508C70.5818 7.5508 70.7393 7.62945 70.8181 7.62945C70.8969 7.62945 71.0544 7.7081 71.1332 7.7081C71.2907 7.7081 71.3695 7.78675 71.4483 7.78675L71.8422 7.94406L71.9209 7.47215L72.0785 6.21372V5.89911L71.7634 5.82046C71.6846 5.82046 71.5271 5.74181 71.4483 5.74181C71.3695 5.74181 71.2907 5.66316 71.1332 5.66316C71.0544 5.66316 70.8969 5.58451 70.7393 5.58451C70.5818 5.58451 70.503 5.50586 70.3454 5.50586H70.2667V4.40473V4.01147H69.8728H68.77H68.3761V4.40473V5.58451H68.2973C68.061 5.66316 67.8247 5.74181 67.5883 5.89911C67.352 5.97777 67.1945 6.13507 67.0369 6.29237C66.8794 6.44968 66.7218 6.60698 66.5643 6.84293C66.4067 7.00024 66.3279 7.23619 66.2492 7.47215C66.1704 7.7081 66.0916 7.94406 66.0129 8.18001C65.9341 8.41597 65.9341 8.73058 65.9341 8.96653C65.9341 9.20249 65.9341 9.35979 66.0129 9.59574C66.0916 9.8317 66.0916 9.989 66.2492 10.225C66.3279 10.3823 66.4855 10.6182 66.5643 10.7755C66.7218 10.9328 66.8006 11.0901 66.9581 11.2474C67.1157 11.4047 67.2732 11.562 67.5096 11.6407C67.6671 11.798 67.9034 11.8766 68.061 11.9553C68.2973 12.0339 68.5336 12.1912 68.6912 12.2699C68.9275 12.3486 69.1638 12.4272 69.3214 12.5059C69.4002 12.5059 69.5577 12.5845 69.6365 12.6632C69.7153 12.7418 69.8728 12.7418 69.9516 12.8205C70.0304 12.8991 70.1091 12.9778 70.1879 12.9778C70.2667 13.0564 70.3454 13.1351 70.4242 13.2137C70.503 13.2924 70.503 13.371 70.5818 13.5283C70.5818 13.607 70.6605 13.7643 70.6605 13.9216C70.6605 14.0789 70.6605 14.1575 70.6605 14.3148C70.6605 14.3935 70.5818 14.5508 70.503 14.6295C70.4242 14.7081 70.3454 14.7868 70.2667 14.8654C70.1879 14.9441 70.1091 15.0227 69.9516 15.1014C69.8728 15.18 69.7153 15.18 69.6365 15.2587C69.5577 15.2587 69.4002 15.3373 69.2426 15.3373C69.1638 15.3373 69.0851 15.3373 68.9275 15.3373C68.8487 15.3373 68.6912 15.3373 68.6124 15.3373C68.4549 15.3373 68.2973 15.3373 68.2185 15.3373C68.061 15.3373 67.9034 15.2587 67.8247 15.2587C67.6671 15.2587 67.5096 15.18 67.352 15.1014C67.1945 15.0227 67.0369 15.0227 66.8794 14.9441C66.8006 14.9441 66.7218 14.8654 66.643 14.8654C66.5643 14.8654 66.4855 14.7868 66.4067 14.7868L65.9341 14.5508L65.8553 15.1014L65.6978 16.5171V16.753L65.9341 16.8317C66.2492 16.753 66.4067 16.8317 66.643 16.9103C66.8006 16.989 67.0369 17.0677 67.1945 17.0677C67.352 17.1463 67.5883 17.1463 67.8247 17.225C68.061 17.3036 68.2185 17.3036 68.4549 17.3036H68.6124V18.4834V18.8766H69.0063H70.1091H70.503V18.4834V17.225H70.5818C70.8181 17.1463 71.0544 17.0677 71.2907 16.9103C71.5271 16.8317 71.6846 16.6744 71.9209 16.5171C72.0785 16.3598 72.236 16.2025 72.3936 15.9665C72.5511 15.8092 72.6299 15.5733 72.7875 15.3373C72.8662 15.1014 72.945 14.8654 73.0238 14.6295C73.1025 14.3935 73.1026 14.1575 73.1026 13.8429C73.1026 13.607 73.1025 13.4497 73.0238 13.2137Z" fill="#005189" fill-opacity="0.7"/>
<path d="M63.8859 24.3821C63.492 23.8316 62.6255 23.7529 62.0741 24.1462L49.3126 34.2922L32.8488 27.4495C32.4549 27.2922 31.9823 27.3709 31.6672 27.6068L14.0217 40.1911C13.4703 40.5844 13.3127 41.3709 13.7066 41.9214C13.9429 42.3147 14.3368 42.472 14.7307 42.472C14.967 42.472 15.2033 42.3934 15.4396 42.2361L32.5337 30.0451L49.0763 36.8877C49.4702 37.045 50.0216 36.9664 50.3367 36.7304L63.6496 26.1911C64.201 25.7979 64.2798 24.9327 63.8859 24.3821Z" fill="#005189" fill-opacity="0.7"/>
<path d="M82.3193 67.483H76.49V31.0673C76.49 30.3594 75.9386 29.8088 75.2296 29.8088H63.6497C62.9408 29.8088 62.3894 30.3594 62.3894 31.0673V67.483H58.1355V43.6515C58.1355 42.9437 57.5841 42.3931 56.8751 42.3931H45.2165C44.5076 42.3931 43.9561 42.9437 43.9561 43.6515V67.483H39.7023V41.7639C39.7023 41.056 39.1509 40.5055 38.4419 40.5055H26.8621C26.1531 40.5055 25.6017 41.056 25.6017 41.7639V67.483H21.3479V49.1572C21.3479 48.4493 20.7965 47.8987 20.0875 47.8987H8.42886C7.71989 47.8987 7.16847 48.4493 7.16847 49.1572V67.483H1.26039C0.551421 67.483 0 68.0336 0 68.7414C0 69.4493 0.551421 69.9998 1.26039 69.9998H8.35009H19.9299H26.8621H38.4419H45.2165H56.7964H63.571H75.1508H82.2405C82.9495 69.9998 83.5009 69.4493 83.5009 68.7414C83.5797 68.0336 83.0283 67.483 82.3193 67.483ZM18.7483 67.483H9.68926V50.4156H18.7483V67.483ZM37.1815 67.483H28.1225V43.0223H37.1815V67.483ZM55.536 67.483H46.4769V44.91H55.536V67.483ZM73.9692 67.483H64.9101V32.3257H73.9692V67.483Z" fill="#FF0000" fill-opacity="0.7"/>
</g>
<defs>
<clipPath id="clip0">
<rect width="83.5088" height="70" fill="white"/>
</clipPath>
</defs>
</svg>
