<svg width="231" height="231" viewBox="0 0 231 231" fill="none" xmlns="http://www.w3.org/2000/svg">
<path d="M73.6917 210.707L107.02 177.379C111.571 183.671 117.096 189.196 123.388 193.747L90.0595 227.075C87.9765 229.156 85.1528 230.324 82.2088 230.324C79.2649 230.324 76.4412 229.156 74.3582 227.075L73.6917 226.594C72.6335 225.559 71.7928 224.324 71.2188 222.959C70.6448 221.595 70.3491 220.13 70.3491 218.651C70.3491 217.171 70.6448 215.706 71.2188 214.342C71.7928 212.978 72.6335 211.742 73.6917 210.707ZM230.297 135.238C230.297 148.055 226.496 160.584 219.375 171.241C212.254 181.898 202.133 190.204 190.292 195.109C178.45 200.014 165.42 201.298 152.849 198.797C140.278 196.297 128.731 190.125 119.668 181.062C110.605 171.998 104.433 160.451 101.933 147.88C99.4321 135.31 100.715 122.279 105.62 110.438C110.525 98.5965 118.831 88.4754 129.489 81.3545C140.146 74.2337 152.675 70.433 165.492 70.433C182.673 70.4526 199.145 77.2865 211.294 89.4355C223.443 101.584 230.277 118.056 230.297 135.238ZM213.633 135.238C213.633 125.716 210.809 116.409 205.52 108.492C200.23 100.575 192.711 94.4052 183.915 90.7615C175.118 87.1179 165.439 86.1645 156.1 88.0221C146.762 89.8796 138.184 94.4645 131.452 101.197C124.719 107.93 120.134 116.508 118.277 125.846C116.419 135.184 117.372 144.864 121.016 153.66C124.66 162.457 130.83 169.975 138.747 175.265C146.663 180.555 155.971 183.378 165.492 183.378C171.814 183.378 178.074 182.133 183.915 179.714C189.755 177.295 195.062 173.749 199.533 169.278C204.003 164.808 207.549 159.501 209.968 153.66C212.388 147.82 213.633 141.56 213.633 135.238ZM206.226 135.238C206.226 143.294 203.837 151.17 199.361 157.868C194.886 164.567 188.524 169.788 181.08 172.871C173.637 175.954 165.447 176.761 157.545 175.189C149.644 173.618 142.385 169.738 136.689 164.041C130.992 158.344 127.112 151.086 125.54 143.185C123.969 135.283 124.775 127.093 127.858 119.649C130.942 112.206 136.163 105.844 142.861 101.368C149.56 96.8923 157.436 94.5033 165.492 94.5033C176.296 94.5033 186.656 98.7949 194.296 106.434C201.935 114.073 206.226 124.434 206.226 135.238ZM188.489 123.351C188.144 123.004 187.735 122.728 187.283 122.54C186.832 122.352 186.348 122.255 185.859 122.255C185.37 122.255 184.886 122.352 184.435 122.54C183.984 122.728 183.574 123.004 183.23 123.351L159.937 146.68L144.051 130.757C143.354 130.06 142.408 129.668 141.422 129.668C140.436 129.668 139.49 130.06 138.793 130.757C138.095 131.454 137.704 132.4 137.704 133.386C137.704 134.372 138.095 135.318 138.793 136.015L157.308 154.531C157.652 154.878 158.062 155.154 158.513 155.342C158.965 155.53 159.449 155.626 159.937 155.626C160.426 155.626 160.91 155.53 161.362 155.342C161.813 155.154 162.222 154.878 162.567 154.531L188.489 128.609C188.836 128.265 189.111 127.855 189.299 127.404C189.487 126.953 189.584 126.469 189.584 125.98C189.584 125.491 189.487 125.007 189.299 124.556C189.111 124.104 188.836 123.695 188.489 123.351Z" fill="#FF0000" fill-opacity="0.5"/>
<path d="M174.75 0.703125H11.8125C8.86611 0.703125 6.0404 1.87357 3.95699 3.95699C1.87357 6.0404 0.703125 8.86611 0.703125 11.8125V141.422C0.703125 144.368 1.87357 147.194 3.95699 149.277C6.0404 151.361 8.86611 152.531 11.8125 152.531H174.75C177.696 152.531 180.522 151.361 182.606 149.277C184.689 147.194 185.859 144.368 185.859 141.422V11.8125C185.859 8.86611 184.689 6.0404 182.606 3.95699C180.522 1.87357 177.696 0.703125 174.75 0.703125ZM11.8125 8.10938H174.75C175.732 8.10938 176.674 8.49952 177.369 9.194C178.063 9.88847 178.453 10.8304 178.453 11.8125V22.9219H8.10938V11.8125C8.10938 10.8304 8.49952 9.88847 9.194 9.194C9.88847 8.49952 10.8304 8.10938 11.8125 8.10938ZM174.75 145.125H11.8125C10.8304 145.125 9.88847 144.735 9.194 144.04C8.49952 143.346 8.10938 142.404 8.10938 141.422V30.3281H178.453V141.422C178.453 142.404 178.063 143.346 177.369 144.04C176.674 144.735 175.732 145.125 174.75 145.125ZM152.531 45.1406H34.0312C33.0491 45.1406 32.1072 45.5308 31.4127 46.2252C30.7183 46.9197 30.3281 47.8616 30.3281 48.8438V93.2812C30.3281 94.2634 30.7183 95.2053 31.4127 95.8998C32.1072 96.5942 33.0491 96.9844 34.0312 96.9844H152.531C153.513 96.9844 154.455 96.5942 155.15 95.8998C155.844 95.2053 156.234 94.2634 156.234 93.2812V48.8438C156.234 47.8616 155.844 46.9197 155.15 46.2252C154.455 45.5308 153.513 45.1406 152.531 45.1406ZM148.828 89.5781H37.7344V52.5469H148.828V89.5781ZM63.6562 104.391H34.0312C33.0491 104.391 32.1072 104.781 31.4127 105.475C30.7183 106.17 30.3281 107.112 30.3281 108.094V126.609C30.3281 127.592 30.7183 128.533 31.4127 129.228C32.1072 129.922 33.0491 130.312 34.0312 130.312H63.6562C64.6384 130.312 65.5803 129.922 66.2748 129.228C66.9692 128.533 67.3594 127.592 67.3594 126.609V108.094C67.3594 107.112 66.9692 106.17 66.2748 105.475C65.5803 104.781 64.6384 104.391 63.6562 104.391ZM59.9531 122.906H37.7344V111.797H59.9531V122.906ZM108.094 104.391H78.4688C77.4866 104.391 76.5447 104.781 75.8502 105.475C75.1558 106.17 74.7656 107.112 74.7656 108.094V126.609C74.7656 127.592 75.1558 128.533 75.8502 129.228C76.5447 129.922 77.4866 130.312 78.4688 130.312H108.094C109.076 130.312 110.018 129.922 110.712 129.228C111.407 128.533 111.797 127.592 111.797 126.609V108.094C111.797 107.112 111.407 106.17 110.712 105.475C110.018 104.781 109.076 104.391 108.094 104.391ZM104.391 122.906H82.1719V111.797H104.391V122.906ZM152.531 104.391H122.906C121.924 104.391 120.982 104.781 120.288 105.475C119.593 106.17 119.203 107.112 119.203 108.094V126.609C119.203 127.592 119.593 128.533 120.288 129.228C120.982 129.922 121.924 130.312 122.906 130.312H152.531C153.513 130.312 154.455 129.922 155.15 129.228C155.844 128.533 156.234 127.592 156.234 126.609V108.094C156.234 107.112 155.844 106.17 155.15 105.475C154.455 104.781 153.513 104.391 152.531 104.391ZM148.828 122.906H126.609V111.797H148.828V122.906Z" fill="#005189"/>
</svg>
