<svg width="79" height="69" viewBox="0 0 79 69" fill="none" xmlns="http://www.w3.org/2000/svg">
<g clip-path="url(#clip0)">
<path d="M68.5924 24H31.8699C31.2311 24 30.7107 24.5109 30.7107 25.1475C30.7107 25.7841 31.2268 26.295 31.8699 26.295H68.5924C69.2313 26.295 69.7517 25.7841 69.7517 25.1475C69.7517 24.5109 69.2313 24 68.5924 24Z" fill="#FF0000" fill-opacity="0.7"/>
<path d="M68.8818 33H32.1592C31.5204 33 31 33.5109 31 34.1475C31 34.7799 31.5161 35.295 32.1592 35.295H68.8818C69.5206 35.295 70.041 34.784 70.041 34.1475C70.0367 33.5109 69.5206 33 68.8818 33Z" fill="#FF0000" fill-opacity="0.7"/>
<path d="M68.5924 42.1096H31.8699C31.2311 42.1096 30.7107 42.6205 30.7107 43.2571C30.7107 43.8895 31.2268 44.4046 31.8699 44.4046H68.5924C69.2313 44.4046 69.7517 43.8937 69.7517 43.2571C69.7474 42.6205 69.2313 42.1096 68.5924 42.1096Z" fill="#FF0000" fill-opacity="0.7"/>
<path d="M72.269 14.5781H28.1935C24.4831 14.5781 21.4624 17.5683 21.4624 21.2411V48.6761C21.4624 52.3489 24.4831 55.3391 28.1935 55.3391H59.0861C59.4161 55.3391 59.7249 55.4856 59.928 55.7411L69.904 68.242C70.2975 68.7362 70.8728 69.0042 71.4694 69.0042C71.6936 69.0042 71.9178 68.9665 72.1421 68.8911C72.9628 68.6106 73.4959 67.8693 73.4959 67.0066V55.2218C76.6181 54.6439 78.9958 51.9134 78.9958 48.6719V21.2411C79 17.5641 75.9793 14.5781 72.269 14.5781ZM76.6858 48.6719C76.6858 51.0506 74.7312 53.0106 72.3282 53.0399C71.6936 53.0483 71.1859 53.5592 71.1859 54.1874V66.1481L61.7472 54.3214C61.0999 53.5131 60.1311 53.0483 59.0903 53.0483H28.1935C25.7566 53.0483 23.7766 51.0883 23.7766 48.6761V21.2411C23.7766 18.8289 25.7566 16.8689 28.1935 16.8689H72.2647C74.7016 16.8689 76.6816 18.8289 76.6816 21.2411V48.6719H76.6858Z" fill="#FF0000" fill-opacity="0.7"/>
<path d="M17.0498 33.5158C16.2586 33.6289 15.5479 34.031 15.0529 34.6508L7.10336 44.6138V34.6298C7.10336 34.0016 6.59567 33.4907 5.96107 33.4823C3.95148 33.4572 2.3142 31.8156 2.3142 29.8263V5.94683C2.3142 3.92826 3.97263 2.29079 6.00761 2.29079H44.3759C46.4151 2.29079 48.0693 3.93245 48.0693 5.94683V10.3651C48.0693 10.9975 48.5854 11.5126 49.2285 11.5126C49.8674 11.5126 50.3877 11.0016 50.3877 10.3651V5.94683C50.3877 2.6677 47.6928 0 44.3801 0H6.00761C2.69496 0 0 2.6677 0 5.94683V29.8263C0 32.6783 2.06459 35.0863 4.78916 35.6475V45.7822C4.78916 46.5947 5.29262 47.2941 6.06684 47.5621C6.27837 47.6333 6.48991 47.671 6.70144 47.671C7.26836 47.671 7.80989 47.4155 8.18219 46.9507L16.8678 36.0663C16.9948 35.9071 17.1724 35.8066 17.3713 35.7773C18.0059 35.6894 18.4459 35.1072 18.3528 34.4832C18.2682 33.8634 17.6801 33.4279 17.0498 33.5158Z" fill="#005189" fill-opacity="0.7"/>
</g>
<defs>
<clipPath id="clip0">
<rect width="79" height="69" fill="white"/>
</clipPath>
</defs>
</svg>
