<svg width="180" height="180" viewBox="0 0 180 180" fill="none" xmlns="http://www.w3.org/2000/svg">
<path d="M137.717 46.6726C137.717 52.1256 133.747 55.442 130.849 57.8757C129.751 58.7975 127.707 60.4795 127.713 61.1078C127.733 63.5722 125.751 65.5403 123.286 65.5403C123.274 65.5403 123.261 65.5403 123.249 65.5403C120.801 65.5403 118.807 63.6327 118.787 61.1807C118.748 56.3474 122.275 53.453 125.109 51.0734C127.333 49.2059 128.792 47.8919 128.792 46.6894C128.792 44.2552 126.811 42.2747 124.377 42.2747C121.942 42.2747 119.961 44.2552 119.961 46.6894C119.961 49.1544 117.963 51.1522 115.498 51.1522C113.033 51.1522 111.035 49.1544 111.035 46.6894C111.035 39.3337 117.02 33.3491 124.376 33.3491C131.733 33.3486 137.717 39.3164 137.717 46.6726ZM123.372 69.66C120.907 69.66 119.008 71.6578 119.008 74.1228V74.157C119.008 76.622 120.908 78.603 123.372 78.603C125.837 78.603 127.835 76.5878 127.835 74.1228C127.835 71.6578 125.837 69.66 123.372 69.66ZM33.4175 100.747C30.9526 100.747 28.9547 102.745 28.9547 105.21C28.9547 107.675 30.9526 109.673 33.4175 109.673H33.7894C36.2544 109.673 38.2522 107.675 38.2522 105.21C38.2522 102.745 36.2544 100.747 33.7894 100.747H33.4175ZM48.9278 100.747C46.4628 100.747 44.465 102.745 44.465 105.21C44.465 107.675 46.4628 109.673 48.9278 109.673H49.2992C51.7641 109.673 53.762 107.675 53.762 105.21C53.762 102.745 51.7641 100.747 49.2992 100.747H48.9278ZM180 29.4669V79.6988C180 91.5922 170.463 101.243 158.57 101.243H100.694C99.5623 101.243 98.6306 101.237 97.8511 101.221C97.0344 101.204 96.115 101.197 95.7565 101.237C95.3831 101.485 94.4678 102.323 93.5856 103.136C93.236 103.458 92.8403 103.812 92.4134 104.202L76.0388 119.126C74.7327 120.318 72.8003 120.626 71.1828 119.913C69.5653 119.2 68.4297 117.598 68.4297 115.83V68.516H21.6793C14.7064 68.516 8.92562 74.2299 8.92562 81.2018V131.434C8.92562 138.406 14.7069 143.888 21.6793 143.888H86.3276C87.4408 143.888 88.4821 144.399 89.3043 145.15L102.645 157.449V115.033C102.645 112.568 104.642 110.571 107.107 110.571C109.572 110.571 111.57 112.568 111.57 115.033V167.565C111.57 169.332 110.559 170.91 108.941 171.624C108.362 171.879 107.781 171.98 107.172 171.98C106.079 171.98 105.001 171.531 104.163 170.765L84.5975 152.813H21.6793C9.78545 152.813 0 143.327 0 131.433V81.2018C0 69.3084 9.78545 59.5904 21.6793 59.5904H68.4297V29.4669C68.4297 17.573 78.2901 8.02014 90.184 8.02014H158.571C170.463 8.02014 180 17.573 180 29.4669ZM171.074 29.4669C171.074 22.4945 165.542 16.9458 158.57 16.9458H90.184C83.2116 16.9458 77.3554 22.4945 77.3554 29.4669V64.0949V105.715L86.3281 97.6061C86.7436 97.2268 87.2093 96.8797 87.5489 96.5663C91.6463 92.7907 92.6945 92.1873 98.039 92.2974C98.7679 92.3127 99.6362 92.3182 100.694 92.3182H158.57C165.542 92.3182 171.074 86.6712 171.074 79.6993V29.4669Z" fill="white"/>
</svg>
