<svg width="71" height="71" viewBox="0 0 71 71" fill="none" xmlns="http://www.w3.org/2000/svg">
<path d="M28.844 32.1719C28.844 36.3121 32.1288 39.4804 33.3092 40.4855C33.4465 43.5997 34.7718 46.5428 37.0125 48.7098C39.2533 50.8768 42.2391 52.1028 45.3561 52.1357C48.4731 52.1687 51.4842 51.0061 53.7703 48.887C56.0564 46.7679 57.4436 43.8534 57.6467 40.7429C62.0653 38.9391 62.1252 32.4625 62.1252 32.1719V24.4062C62.1252 21.8159 59.8832 14.4219 49.9221 14.4219C41.9579 14.4219 38.6575 15.8275 37.4782 16.5585C36.5547 16.3088 35.5865 16.272 34.6467 16.4507C33.7068 16.6294 32.8197 17.019 32.0523 17.5903C28.6221 20.3226 28.7486 26.8968 28.8251 30.8251C28.8351 31.3243 28.844 31.7792 28.844 32.1719ZM45.4846 49.9219C42.8375 49.9189 40.2996 48.8661 38.4278 46.9943C36.556 45.1225 35.5032 42.5846 35.5002 39.9375V27.4459C38.223 26.5971 40.8478 25.461 43.3302 24.0568C44.4916 25.374 45.8114 26.5425 47.2596 27.5358C49.7145 29.2507 52.5176 30.4026 55.469 30.9094V39.9375C55.4661 42.5846 54.4132 45.1225 52.5414 46.9943C50.6696 48.8661 48.1317 49.9189 45.4846 49.9219Z" fill="#FF0000" fill-opacity="0.5"/>
<path d="M54.3594 55.4688H36.6094C33.0799 55.4726 29.696 56.8764 27.2002 59.3721C24.7045 61.8679 23.3007 65.2517 23.2969 68.7812C23.2969 69.0755 23.4138 69.3576 23.6218 69.5657C23.8299 69.7737 24.112 69.8906 24.4062 69.8906H66.5625C66.8567 69.8906 67.1389 69.7737 67.3469 69.5657C67.555 69.3576 67.6719 69.0755 67.6719 68.7812C67.6681 65.2517 66.2643 61.8679 63.7685 59.3721C61.2728 56.8764 57.8889 55.4726 54.3594 55.4688Z" fill="#FF0000" fill-opacity="0.5"/>
<path d="M42.1562 1.10938H6.65625C5.77358 1.10938 4.92705 1.46002 4.30291 2.08416C3.67877 2.7083 3.32813 3.55483 3.32812 4.4375V53.25C3.32813 54.1327 3.67877 54.9792 4.30291 55.6033C4.92705 56.2275 5.77358 56.5781 6.65625 56.5781H42.1562C43.0389 56.5781 43.8854 56.2275 44.5096 55.6033C45.1337 54.9792 45.4844 54.1327 45.4844 53.25V4.4375C45.4844 3.55483 45.1337 2.7083 44.5096 2.08416C43.8854 1.46002 43.0389 1.10938 42.1562 1.10938ZM43.2656 53.25C43.2656 53.5442 43.1487 53.8264 42.9407 54.0344C42.7327 54.2425 42.4505 54.3594 42.1562 54.3594H6.65625C6.36203 54.3594 6.07985 54.2425 5.8718 54.0344C5.66376 53.8264 5.54688 53.5442 5.54688 53.25V4.4375C5.54688 4.14328 5.66376 3.8611 5.8718 3.65305C6.07985 3.44501 6.36203 3.32812 6.65625 3.32812H42.1562C42.4505 3.32812 42.7327 3.44501 42.9407 3.65305C43.1487 3.8611 43.2656 4.14328 43.2656 4.4375V53.25Z" fill="#005189"/>
<path d="M34.3906 8.875H14.4219C13.5392 8.875 12.6927 9.22564 12.0685 9.84978C11.4444 10.4739 11.0938 11.3205 11.0938 12.2031V21.0781C11.0938 21.9608 11.4444 22.8073 12.0685 23.4315C12.6927 24.0556 13.5392 24.4062 14.4219 24.4062H34.3906C35.2733 24.4062 36.1198 24.0556 36.744 23.4315C37.3681 22.8073 37.7188 21.9608 37.7188 21.0781V12.2031C37.7188 11.3205 37.3681 10.4739 36.744 9.84978C36.1198 9.22564 35.2733 8.875 34.3906 8.875ZM35.5 21.0781C35.5 21.3723 35.3831 21.6545 35.1751 21.8626C34.967 22.0706 34.6848 22.1875 34.3906 22.1875H14.4219C14.1277 22.1875 13.8455 22.0706 13.6374 21.8626C13.4294 21.6545 13.3125 21.3723 13.3125 21.0781V12.2031C13.3125 11.9089 13.4294 11.6267 13.6374 11.4187C13.8455 11.2106 14.1277 11.0938 14.4219 11.0938H34.3906C34.6848 11.0938 34.967 11.2106 35.1751 11.4187C35.3831 11.6267 35.5 11.9089 35.5 12.2031V21.0781Z" fill="#005189"/>
<path d="M36.6094 32.1719H12.2031C11.9089 32.1719 11.6267 32.2888 11.4187 32.4968C11.2106 32.7049 11.0938 32.987 11.0938 33.2812C11.0938 33.5755 11.2106 33.8576 11.4187 34.0657C11.6267 34.2737 11.9089 34.3906 12.2031 34.3906H36.6094C36.9036 34.3906 37.1858 34.2737 37.3938 34.0657C37.6019 33.8576 37.7188 33.5755 37.7188 33.2812C37.7188 32.987 37.6019 32.7049 37.3938 32.4968C37.1858 32.2888 36.9036 32.1719 36.6094 32.1719Z" fill="#005189"/>
<path d="M36.6094 38.8281H12.2031C11.9089 38.8281 11.6267 38.945 11.4187 39.1531C11.2106 39.3611 11.0938 39.6433 11.0938 39.9375C11.0938 40.2317 11.2106 40.5139 11.4187 40.7219C11.6267 40.93 11.9089 41.0469 12.2031 41.0469H36.6094C36.9036 41.0469 37.1858 40.93 37.3938 40.7219C37.6019 40.5139 37.7188 40.2317 37.7188 39.9375C37.7188 39.6433 37.6019 39.3611 37.3938 39.1531C37.1858 38.945 36.9036 38.8281 36.6094 38.8281Z" fill="#005189"/>
<path d="M36.6094 45.4844H12.2031C11.9089 45.4844 11.6267 45.6013 11.4187 45.8093C11.2106 46.0174 11.0938 46.2995 11.0938 46.5938C11.0938 46.888 11.2106 47.1701 11.4187 47.3782C11.6267 47.5862 11.9089 47.7031 12.2031 47.7031H36.6094C36.9036 47.7031 37.1858 47.5862 37.3938 47.3782C37.6019 47.1701 37.7188 46.888 37.7188 46.5938C37.7188 46.2995 37.6019 46.0174 37.3938 45.8093C37.1858 45.6013 36.9036 45.4844 36.6094 45.4844Z" fill="#005189"/>
</svg>
