<svg width="263" height="263" viewBox="0 0 263 263" fill="none" xmlns="http://www.w3.org/2000/svg">
<path d="M203.414 254.781C203.414 255.871 202.981 256.916 202.21 257.687C201.44 258.458 200.395 258.891 199.305 258.891H117.117C116.027 258.891 114.982 258.458 114.211 257.687C113.441 256.916 113.008 255.871 113.008 254.781C113.008 253.691 113.441 252.646 114.211 251.875C114.982 251.105 116.027 250.672 117.117 250.672H126.897L131.007 242.453H185.415L189.524 250.672H199.305C200.395 250.672 201.44 251.105 202.21 251.875C202.981 252.646 203.414 253.691 203.414 254.781ZM76.0234 221.906C76.0234 225.176 77.3223 228.312 79.6343 230.624C81.9462 232.936 85.0819 234.234 88.3516 234.234H228.07C231.34 234.234 234.476 232.936 236.788 230.624C239.1 228.312 240.398 225.176 240.398 221.906V209.578H76.0234V221.906ZM117.117 156.156V102.734H88.3516C85.0819 102.734 81.9462 104.033 79.6343 106.345C77.3223 108.657 76.0234 111.793 76.0234 115.062V201.359H240.398V176.703H137.664C132.215 176.703 126.989 174.538 123.135 170.685C119.282 166.832 117.117 161.606 117.117 156.156ZM256.836 90.4062V156.156C256.836 159.426 255.537 162.562 253.225 164.874C250.913 167.186 247.777 168.484 244.508 168.484H137.664C134.394 168.484 131.259 167.186 128.947 164.874C126.635 162.562 125.336 159.426 125.336 156.156V90.4062C125.336 87.1366 126.635 84.0009 128.947 81.6889C131.259 79.377 134.394 78.0781 137.664 78.0781H244.508C247.777 78.0781 250.913 79.377 253.225 81.6889C255.537 84.0009 256.836 87.1366 256.836 90.4062ZM164.005 123.281L173.457 113.871C174.231 113.097 174.665 112.047 174.665 110.953C174.665 109.859 174.231 108.809 173.457 108.035C172.683 107.262 171.633 106.827 170.539 106.827C169.445 106.827 168.395 107.262 167.621 108.035L155.293 120.364C154.908 120.746 154.602 121.2 154.394 121.701C154.185 122.202 154.078 122.739 154.078 123.281C154.078 123.824 154.185 124.361 154.394 124.862C154.602 125.362 154.908 125.817 155.293 126.199L167.621 138.527C168.395 139.301 169.445 139.736 170.539 139.736C171.633 139.736 172.683 139.301 173.457 138.527C174.231 137.753 174.665 136.704 174.665 135.609C174.665 134.515 174.231 133.466 173.457 132.692L164.005 123.281ZM196.51 107.049C195.998 106.875 195.456 106.804 194.916 106.84C194.375 106.876 193.848 107.018 193.363 107.259C192.878 107.5 192.445 107.834 192.09 108.242C191.734 108.65 191.463 109.125 191.291 109.638L183.073 134.294C182.9 134.807 182.83 135.349 182.867 135.888C182.903 136.428 183.046 136.955 183.286 137.44C183.527 137.925 183.86 138.357 184.268 138.713C184.675 139.069 185.149 139.341 185.662 139.513C186.174 139.686 186.716 139.756 187.256 139.719C187.795 139.683 188.323 139.54 188.807 139.3C189.292 139.059 189.724 138.726 190.08 138.318C190.436 137.911 190.708 137.437 190.88 136.924L199.099 112.268C199.273 111.756 199.344 111.214 199.308 110.673C199.272 110.133 199.13 109.606 198.889 109.121C198.649 108.636 198.315 108.203 197.907 107.848C197.498 107.492 197.024 107.221 196.51 107.049ZM226.879 120.364L214.55 108.035C213.777 107.262 212.727 106.827 211.633 106.827C210.538 106.827 209.489 107.262 208.715 108.035C207.941 108.809 207.507 109.859 207.507 110.953C207.507 112.047 207.941 113.097 208.715 113.871L218.167 123.281L208.715 132.692C207.941 133.466 207.507 134.515 207.507 135.609C207.507 136.704 207.941 137.753 208.715 138.527C209.489 139.301 210.538 139.736 211.633 139.736C212.727 139.736 213.777 139.301 214.55 138.527L226.879 126.199C227.264 125.817 227.569 125.362 227.778 124.862C227.987 124.361 228.094 123.824 228.094 123.281C228.094 122.739 227.987 122.202 227.778 121.701C227.569 121.2 227.264 120.746 226.879 120.364Z" fill="#FF0000" fill-opacity="0.5"/>
<path d="M119.172 90.406C115.565 96.6526 110.377 101.84 104.131 105.446C97.8837 109.052 90.7977 110.951 83.5846 110.951C76.3715 110.951 69.2855 109.052 63.0386 105.446C56.7918 101.84 51.6043 96.6526 47.9974 90.406C47.7257 89.937 47.5495 89.4189 47.4789 88.8815C47.4082 88.344 47.4447 87.798 47.586 87.2747C47.7273 86.7514 47.9708 86.2612 48.3023 85.8324C48.6339 85.4036 49.047 85.0446 49.5179 84.7762C50.4615 84.2404 51.5786 84.0996 52.6257 84.3845C53.6727 84.6693 54.5645 85.3567 55.1066 86.2966C57.9826 91.3268 62.1369 95.5075 67.1488 98.4152C72.1606 101.323 77.852 102.854 83.6462 102.854C89.4405 102.854 95.1318 101.323 100.144 98.4152C105.156 95.5075 109.31 91.3268 112.186 86.2966C112.454 85.8258 112.813 85.4126 113.242 85.0811C113.671 84.7495 114.161 84.5061 114.684 84.3647C115.208 84.2234 115.754 84.187 116.291 84.2576C116.829 84.3282 117.347 84.5045 117.816 84.7762C118.739 85.3456 119.4 86.257 119.654 87.3117C119.908 88.3663 119.735 89.4786 119.172 90.406ZM161.211 18.5741L144.773 45.5316C149.501 57.4495 150.658 70.4861 148.102 83.0502C145.85 93.8211 140.941 103.858 133.822 112.248C126.702 120.638 117.598 127.115 107.337 131.089C121.516 135.586 134.115 144.039 143.652 155.454C153.189 166.869 159.266 180.771 161.17 195.524C161.418 197.281 161.284 199.072 160.777 200.773C160.27 202.474 159.401 204.046 158.231 205.38C157.06 206.714 155.615 207.78 153.995 208.505C152.374 209.229 150.616 209.595 148.841 209.578H18.4921C16.7171 209.595 14.9593 209.229 13.3388 208.505C11.7183 207.78 10.2734 206.714 9.10283 205.38C7.93227 204.046 7.06369 202.474 6.55648 200.773C6.04927 199.072 5.91538 197.281 6.16398 195.524C8.07779 180.774 14.1649 166.877 23.709 155.469C33.2531 144.062 45.8571 135.617 60.0379 131.13C49.7725 127.17 40.6651 120.696 33.5502 112.304C26.4353 103.911 21.5404 93.8665 19.314 83.0913C17.3506 73.535 17.5384 63.6614 19.8639 54.1866C22.1894 44.7118 26.5943 35.8733 32.759 28.3119C38.9238 20.7505 46.6941 14.6557 55.5063 10.4696C64.3185 6.28341 73.9519 4.11075 83.7079 4.10914H145.348C146.019 4.07352 146.688 4.20275 147.297 4.48553C147.906 4.76831 148.437 5.19602 148.842 5.73125C149.248 6.26649 149.516 6.89293 149.623 7.55577C149.73 8.21862 149.674 8.89767 149.458 9.53352L147.526 14.7524L156.69 12.3279C157.499 12.1015 158.358 12.1285 159.152 12.4053C159.945 12.6821 160.634 13.1954 161.127 13.876C161.619 14.5567 161.892 15.3719 161.907 16.2119C161.921 17.052 161.679 17.8764 161.211 18.5741ZM26.1766 69.8591L39.2855 49.3123H29.9984C27.4662 55.8664 26.1704 62.8329 26.1766 69.8591ZM83.7079 135.609C78.6187 135.624 73.5469 136.202 68.5854 137.335C69.7138 140.445 71.7726 143.133 74.4819 145.032C77.1912 146.931 80.4197 147.95 83.7284 147.95C87.0371 147.95 90.2656 146.931 92.9749 145.032C95.6843 143.133 97.7431 140.445 98.8715 137.335C93.8964 136.2 88.8107 135.621 83.7079 135.609ZM83.7079 156.156C80.5031 156.168 77.3284 155.537 74.3712 154.302C71.4139 153.067 68.734 151.252 66.4896 148.965L63.4076 201.359H104.008L100.926 148.965C98.6845 151.256 96.0052 153.073 93.0473 154.309C90.0894 155.544 86.9133 156.172 83.7079 156.156ZM19.314 178.552L40.7649 187.305L42.6552 172.1C42.786 171.011 43.3444 170.017 44.2075 169.339C45.0707 168.661 46.1679 168.353 47.2577 168.484C48.3476 168.615 49.3409 169.173 50.0191 170.036C50.6972 170.9 51.0048 171.997 50.874 173.087L47.2577 201.359H55.1888L58.8051 140.294C49.9602 143.638 41.8935 148.758 35.1018 155.338C28.3102 161.917 22.9373 169.818 19.314 178.552ZM18.4921 201.359H39.039L39.7376 195.77L16.4374 186.319C15.4598 189.671 14.7318 193.091 14.2594 196.551C14.1543 197.157 14.1864 197.778 14.3533 198.37C14.5202 198.961 14.8177 199.508 15.2239 199.969C15.63 200.431 16.1345 200.795 16.7001 201.035C17.2657 201.276 17.8781 201.387 18.4921 201.359ZM153.033 196.551C152.561 193.091 151.833 189.671 150.855 186.319L127.719 195.77L128.418 201.359H148.965C149.565 201.362 150.159 201.233 150.704 200.982C151.249 200.73 151.733 200.363 152.121 199.904C152.508 199.446 152.791 198.908 152.949 198.329C153.106 197.75 153.135 197.143 153.033 196.551ZM108.652 140.294L112.227 201.359H120.158L116.624 173.087C116.559 172.547 116.601 172 116.748 171.477C116.895 170.953 117.143 170.464 117.479 170.036C117.815 169.609 118.231 169.252 118.705 168.986C119.179 168.719 119.701 168.549 120.24 168.484C120.78 168.419 121.327 168.462 121.85 168.608C122.374 168.755 122.863 169.003 123.29 169.339C123.718 169.675 124.075 170.092 124.341 170.565C124.608 171.039 124.778 171.561 124.843 172.1L126.774 187.305L148.225 178.552C144.576 169.82 139.185 161.924 132.38 155.346C125.576 148.767 117.502 143.646 108.652 140.294ZM139.719 82.7626L118.432 49.3123H48.9837L27.7382 82.8859C30.7174 95.4973 37.867 106.734 48.0289 114.775C58.1908 122.816 70.7699 127.191 83.7284 127.191C96.687 127.191 109.266 122.816 119.428 114.775C129.59 106.734 136.739 95.4973 139.719 82.8859V82.7626ZM141.239 69.8591C141.253 62.836 139.971 55.8706 137.458 49.3123H128.171L141.239 69.8591ZM149.006 22.8479L142.225 24.656C141.51 24.8349 140.759 24.8179 140.052 24.6067C139.345 24.3955 138.708 23.9979 138.208 23.4557C137.708 22.9134 137.363 22.2466 137.209 21.525C137.056 20.8035 137.099 20.0539 137.335 19.3549L139.719 12.3279H83.7079C73.6121 12.331 63.6948 14.9908 54.9524 20.0401C46.21 25.0894 38.9502 32.3503 33.9023 41.0935H137.911L149.006 22.8479Z" fill="#005189"/>
</svg>
