<svg width="243" height="243" viewBox="0 0 243 243" fill="none" xmlns="http://www.w3.org/2000/svg">
<path d="M216.422 117.703H117.703C114.682 117.703 111.785 118.903 109.649 121.039C107.513 123.176 106.313 126.073 106.312 129.094V227.812C106.312 230.833 107.513 233.731 109.649 235.867C111.785 238.003 114.682 239.203 117.703 239.203H216.422C219.443 239.203 222.34 238.003 224.476 235.867C226.612 233.731 227.812 230.833 227.812 227.812V129.094C227.812 126.073 226.612 123.176 224.476 121.039C222.34 118.903 219.443 117.703 216.422 117.703ZM196.678 157.95L162.506 203.512C162.18 203.948 161.764 204.307 161.286 204.568C160.809 204.828 160.281 204.983 159.738 205.021C159.195 205.06 158.651 204.981 158.141 204.791C157.632 204.601 157.169 204.303 156.784 203.919L134.003 181.138C133.311 180.421 132.929 179.462 132.937 178.467C132.946 177.471 133.345 176.519 134.049 175.815C134.753 175.111 135.706 174.712 136.701 174.703C137.697 174.694 138.656 175.077 139.372 175.769L159.059 195.456L190.603 153.394C190.902 152.995 191.277 152.659 191.706 152.405C192.135 152.151 192.61 151.984 193.104 151.913C193.597 151.843 194.1 151.87 194.583 151.994C195.066 152.118 195.52 152.335 195.919 152.634C196.318 152.934 196.654 153.308 196.908 153.737C197.162 154.166 197.329 154.641 197.399 155.135C197.47 155.629 197.442 156.131 197.319 156.614C197.195 157.097 196.977 157.551 196.678 157.95Z" fill="#FF0000" fill-opacity="0.5"/>
<path d="M148.078 193.641C151.099 193.641 153.996 192.441 156.133 190.304C158.269 188.168 159.469 185.271 159.469 182.25V53.1562C159.374 52.5839 159.247 52.0173 159.089 51.459L136.308 5.89655C135.975 5.27508 135.484 4.75313 134.883 4.38418C134.283 4.01523 133.595 3.81254 132.891 3.79688H26.5781C23.5571 3.79688 20.6599 4.99696 18.5237 7.13311C16.3876 9.26927 15.1875 12.1665 15.1875 15.1875V182.25C15.1875 185.271 16.3876 188.168 18.5237 190.304C20.6599 192.441 23.5571 193.641 26.5781 193.641H148.078ZM127.894 26.0769L132.891 16.0836L145.88 42.0656L129.173 30.9331C128.405 30.4183 127.852 29.6409 127.616 28.7468C127.381 27.8527 127.479 26.9034 127.894 26.0769ZM22.7812 182.25V15.1875C22.7812 14.1805 23.1813 13.2148 23.8933 12.5027C24.6054 11.7907 25.5711 11.3906 26.5781 11.3906H126.747L121.12 22.6825C119.879 25.1662 119.587 28.0178 120.3 30.7013C121.014 33.3848 122.682 35.7154 124.993 37.2549L151.875 55.1876V182.25C151.875 183.257 151.475 184.223 150.763 184.935C150.051 185.647 149.085 186.047 148.078 186.047H26.5781C25.5711 186.047 24.6054 185.647 23.8933 184.935C23.1813 184.223 22.7812 183.257 22.7812 182.25ZM49.3594 41.7656C49.3594 40.7586 49.7594 39.7929 50.4715 39.0808C51.1835 38.3688 52.1493 37.9688 53.1562 37.9688H87.3281C88.3351 37.9688 89.3009 38.3688 90.0129 39.0808C90.725 39.7929 91.125 40.7586 91.125 41.7656C91.125 42.7726 90.725 43.7384 90.0129 44.4504C89.3009 45.1625 88.3351 45.5625 87.3281 45.5625H53.1562C52.1493 45.5625 51.1835 45.1625 50.4715 44.4504C49.7594 43.7384 49.3594 42.7726 49.3594 41.7656ZM49.3594 56.9531C49.3594 55.9461 49.7594 54.9804 50.4715 54.2683C51.1835 53.5563 52.1493 53.1562 53.1562 53.1562H87.3281C88.3351 53.1562 89.3009 53.5563 90.0129 54.2683C90.725 54.9804 91.125 55.9461 91.125 56.9531C91.125 57.9601 90.725 58.9259 90.0129 59.6379C89.3009 60.35 88.3351 60.75 87.3281 60.75H53.1562C52.1493 60.75 51.1835 60.35 50.4715 59.6379C49.7594 58.9259 49.3594 57.9601 49.3594 56.9531ZM49.3594 87.3281C49.3594 86.3211 49.7594 85.3554 50.4715 84.6433C51.1835 83.9313 52.1493 83.5312 53.1562 83.5312H121.5C122.507 83.5312 123.473 83.9313 124.185 84.6433C124.897 85.3554 125.297 86.3211 125.297 87.3281C125.297 88.3351 124.897 89.3009 124.185 90.0129C123.473 90.725 122.507 91.125 121.5 91.125H53.1562C52.1493 91.125 51.1835 90.725 50.4715 90.0129C49.7594 89.3009 49.3594 88.3351 49.3594 87.3281ZM49.3594 110.109C49.3594 109.102 49.7594 108.137 50.4715 107.425C51.1835 106.713 52.1493 106.312 53.1562 106.312H121.5C122.507 106.312 123.473 106.713 124.185 107.425C124.897 108.137 125.297 109.102 125.297 110.109C125.297 111.116 124.897 112.082 124.185 112.794C123.473 113.506 122.507 113.906 121.5 113.906H53.1562C52.1493 113.906 51.1835 113.506 50.4715 112.794C49.7594 112.082 49.3594 111.116 49.3594 110.109ZM49.3594 132.891C49.3594 131.884 49.7594 130.918 50.4715 130.206C51.1835 129.494 52.1493 129.094 53.1562 129.094H121.5C122.507 129.094 123.473 129.494 124.185 130.206C124.897 130.918 125.297 131.884 125.297 132.891C125.297 133.898 124.897 134.863 124.185 135.575C123.473 136.287 122.507 136.688 121.5 136.688H53.1562C52.1493 136.688 51.1835 136.287 50.4715 135.575C49.7594 134.863 49.3594 133.898 49.3594 132.891ZM49.3594 155.672C49.3594 154.665 49.7594 153.699 50.4715 152.987C51.1835 152.275 52.1493 151.875 53.1562 151.875H121.5C122.507 151.875 123.473 152.275 124.185 152.987C124.897 153.699 125.297 154.665 125.297 155.672C125.297 156.679 124.897 157.645 124.185 158.357C123.473 159.069 122.507 159.469 121.5 159.469H53.1562C52.1493 159.469 51.1835 159.069 50.4715 158.357C49.7594 157.645 49.3594 156.679 49.3594 155.672Z" fill="#005189"/>
</svg>
