<svg width="75" height="75" viewBox="0 0 75 75" fill="none" xmlns="http://www.w3.org/2000/svg">
<path d="M57.4219 57.4219H65.625V65.625H57.4219V57.4219Z" fill="#FF0000" fill-opacity="0.5"/>
<path d="M23.4375 57.4219H31.6406V65.625H23.4375V57.4219Z" fill="#FF0000" fill-opacity="0.5"/>
<path d="M39.8438 57.4219H49.2188V65.625H39.8438V57.4219Z" fill="#FF0000" fill-opacity="0.5"/>
<path d="M23.4375 37.5H65.625V49.2188H23.4375V37.5Z" fill="#FF0000" fill-opacity="0.5"/>
<path d="M67.9688 15.2344H21.0938C19.5403 15.2362 18.051 15.8542 16.9526 16.9526C15.8542 18.051 15.2362 19.5403 15.2344 21.0938V67.9688C15.2362 69.5222 15.8542 71.0115 16.9526 72.1099C18.051 73.2083 19.5403 73.8263 21.0938 73.8281H67.9688C69.5222 73.8263 71.0115 73.2083 72.1099 72.1099C73.2083 71.0115 73.8263 69.5222 73.8281 67.9688V21.0938C73.8263 19.5403 73.2083 18.051 72.1099 16.9526C71.0115 15.8542 69.5222 15.2362 67.9688 15.2344ZM33.9844 66.7969C33.9844 67.1077 33.8609 67.4057 33.6411 67.6255C33.4214 67.8453 33.1233 67.9688 32.8125 67.9688H22.2656C21.9548 67.9688 21.6568 67.8453 21.437 67.6255C21.2172 67.4057 21.0938 67.1077 21.0938 66.7969V56.25C21.0938 55.9392 21.2172 55.6411 21.437 55.4214C21.6568 55.2016 21.9548 55.0781 22.2656 55.0781H32.8125C33.1233 55.0781 33.4214 55.2016 33.6411 55.4214C33.8609 55.6411 33.9844 55.9392 33.9844 56.25V66.7969ZM51.5625 66.7969C51.5625 67.1077 51.439 67.4057 51.2193 67.6255C50.9995 67.8453 50.7014 67.9688 50.3906 67.9688H38.6719C38.3611 67.9688 38.063 67.8453 37.8432 67.6255C37.6235 67.4057 37.5 67.1077 37.5 66.7969V56.25C37.5 55.9392 37.6235 55.6411 37.8432 55.4214C38.063 55.2016 38.3611 55.0781 38.6719 55.0781H50.3906C50.7014 55.0781 50.9995 55.2016 51.2193 55.4214C51.439 55.6411 51.5625 55.9392 51.5625 56.25V66.7969ZM67.9688 66.7969C67.9688 67.1077 67.8453 67.4057 67.6255 67.6255C67.4057 67.8453 67.1077 67.9688 66.7969 67.9688H56.25C55.9392 67.9688 55.6411 67.8453 55.4214 67.6255C55.2016 67.4057 55.0781 67.1077 55.0781 66.7969V56.25C55.0781 55.9392 55.2016 55.6411 55.4214 55.4214C55.6411 55.2016 55.9392 55.0781 56.25 55.0781H66.7969C67.1077 55.0781 67.4057 55.2016 67.6255 55.4214C67.8453 55.6411 67.9688 55.9392 67.9688 56.25V66.7969ZM67.9688 50.3906C67.9688 50.7014 67.8453 50.9995 67.6255 51.2193C67.4057 51.439 67.1077 51.5625 66.7969 51.5625H22.2656C21.9548 51.5625 21.6568 51.439 21.437 51.2193C21.2172 50.9995 21.0938 50.7014 21.0938 50.3906V36.3281C21.0938 36.0173 21.2172 35.7193 21.437 35.4995C21.6568 35.2797 21.9548 35.1562 22.2656 35.1562H66.7969C67.1077 35.1562 67.4057 35.2797 67.6255 35.4995C67.8453 35.7193 67.9688 36.0173 67.9688 36.3281V50.3906ZM67.9688 30.4688C67.9688 30.7796 67.8453 31.0776 67.6255 31.2974C67.4057 31.5172 67.1077 31.6406 66.7969 31.6406H22.2656C21.9548 31.6406 21.6568 31.5172 21.437 31.2974C21.2172 31.0776 21.0938 30.7796 21.0938 30.4688V22.2656C21.0938 21.9548 21.2172 21.6568 21.437 21.437C21.6568 21.2172 21.9548 21.0938 22.2656 21.0938H66.7969C67.1077 21.0938 67.4057 21.2172 67.6255 21.437C67.8453 21.6568 67.9688 21.9548 67.9688 22.2656V30.4688Z" fill="#FF0000" fill-opacity="0.5"/>
<path d="M23.4375 23.4375H65.625V29.2969H23.4375V23.4375Z" fill="#FF0000" fill-opacity="0.5"/>
<path d="M22.2656 35.1562H4.6875C3.7551 35.1563 2.86089 35.5266 2.20158 36.186C1.54227 36.8453 1.17188 37.7395 1.17188 38.6719V56.25C1.17188 57.1824 1.54227 58.0766 2.20158 58.7359C2.86089 59.3952 3.7551 59.7656 4.6875 59.7656H22.2656C23.198 59.7656 24.0922 59.3952 24.7515 58.7359C25.4109 58.0766 25.7812 57.1824 25.7812 56.25V38.6719C25.7812 37.7395 25.4109 36.8453 24.7515 36.186C24.0922 35.5266 23.198 35.1563 22.2656 35.1562ZM23.4375 56.25C23.4375 56.5608 23.314 56.8589 23.0943 57.0786C22.8745 57.2984 22.5764 57.4219 22.2656 57.4219H4.6875C4.3767 57.4219 4.07863 57.2984 3.85886 57.0786C3.63909 56.8589 3.51562 56.5608 3.51562 56.25V38.6719C3.51562 38.3611 3.63909 38.063 3.85886 37.8432C4.07863 37.6235 4.3767 37.5 4.6875 37.5H22.2656C22.5764 37.5 22.8745 37.6235 23.0943 37.8432C23.314 38.063 23.4375 38.3611 23.4375 38.6719V56.25Z" fill="#005189"/>
<path d="M50.3906 35.1562H32.8125C31.8801 35.1563 30.9859 35.5266 30.3266 36.186C29.6673 36.8453 29.2969 37.7395 29.2969 38.6719V56.25C29.2969 57.1824 29.6673 58.0766 30.3266 58.7359C30.9859 59.3952 31.8801 59.7656 32.8125 59.7656H50.3906C51.323 59.7656 52.2172 59.3952 52.8765 58.7359C53.5359 58.0766 53.9062 57.1824 53.9062 56.25V38.6719C53.9062 37.7395 53.5359 36.8453 52.8765 36.186C52.2172 35.5266 51.323 35.1563 50.3906 35.1562ZM51.5625 56.25C51.5625 56.5608 51.439 56.8589 51.2193 57.0786C50.9995 57.2984 50.7014 57.4219 50.3906 57.4219H32.8125C32.5017 57.4219 32.2036 57.2984 31.9839 57.0786C31.7641 56.8589 31.6406 56.5608 31.6406 56.25V38.6719C31.6406 38.3611 31.7641 38.063 31.9839 37.8432C32.2036 37.6235 32.5017 37.5 32.8125 37.5H50.3906C50.7014 37.5 50.9995 37.6235 51.2193 37.8432C51.439 38.063 51.5625 38.3611 51.5625 38.6719V56.25Z" fill="#005189"/>
<path d="M22.2656 7.03125H4.6875C3.7551 7.03125 2.86089 7.40165 2.20158 8.06095C1.54227 8.72026 1.17188 9.61447 1.17188 10.5469V28.125C1.17188 29.0574 1.54227 29.9516 2.20158 30.6109C2.86089 31.2702 3.7551 31.6406 4.6875 31.6406H22.2656C23.198 31.6406 24.0922 31.2702 24.7515 30.6109C25.4109 29.9516 25.7812 29.0574 25.7812 28.125V10.5469C25.7812 9.61447 25.4109 8.72026 24.7515 8.06095C24.0922 7.40165 23.198 7.03125 22.2656 7.03125ZM23.4375 28.125C23.4375 28.4358 23.314 28.7339 23.0943 28.9536C22.8745 29.1734 22.5764 29.2969 22.2656 29.2969H4.6875C4.3767 29.2969 4.07863 29.1734 3.85886 28.9536C3.63909 28.7339 3.51562 28.4358 3.51562 28.125V10.5469C3.51562 10.2361 3.63909 9.938 3.85886 9.71823C4.07863 9.49847 4.3767 9.375 4.6875 9.375H22.2656C22.5764 9.375 22.8745 9.49847 23.0943 9.71823C23.314 9.938 23.4375 10.2361 23.4375 10.5469V28.125Z" fill="#005189"/>
<path d="M56.25 1.17188H32.8125C31.8801 1.17188 30.9859 1.54227 30.3266 2.20158C29.6673 2.86089 29.2969 3.7551 29.2969 4.6875V28.125C29.2969 29.0574 29.6673 29.9516 30.3266 30.6109C30.9859 31.2702 31.8801 31.6406 32.8125 31.6406H56.25C57.1824 31.6406 58.0766 31.2702 58.7359 30.6109C59.3952 29.9516 59.7656 29.0574 59.7656 28.125V4.6875C59.7656 3.7551 59.3952 2.86089 58.7359 2.20158C58.0766 1.54227 57.1824 1.17188 56.25 1.17188ZM57.4219 28.125C57.4219 28.4358 57.2984 28.7339 57.0786 28.9536C56.8589 29.1734 56.5608 29.2969 56.25 29.2969H32.8125C32.5017 29.2969 32.2036 29.1734 31.9839 28.9536C31.7641 28.7339 31.6406 28.4358 31.6406 28.125V4.6875C31.6406 4.3767 31.7641 4.07863 31.9839 3.85886C32.2036 3.63909 32.5017 3.51562 32.8125 3.51562H56.25C56.5608 3.51562 56.8589 3.63909 57.0786 3.85886C57.2984 4.07863 57.4219 4.3767 57.4219 4.6875V28.125Z" fill="#005189"/>
<path d="M51.9059 10.3043L42.1875 20.0227L37.1566 14.9918C36.9356 14.7783 36.6396 14.6602 36.3323 14.6629C36.0251 14.6656 35.7312 14.7888 35.5139 15.0061C35.2966 15.2234 35.1734 15.5173 35.1707 15.8245C35.168 16.1318 35.2861 16.4278 35.4996 16.6488L41.359 22.5082C41.5788 22.7279 41.8768 22.8513 42.1875 22.8513C42.4982 22.8513 42.7963 22.7279 43.016 22.5082L53.5629 11.9613C53.7764 11.7403 53.8945 11.4443 53.8918 11.137C53.8892 10.8298 53.7659 10.5359 53.5486 10.3186C53.3314 10.1013 53.0374 9.97806 52.7302 9.97539C52.4229 9.97272 52.1269 10.0908 51.9059 10.3043Z" fill="#005189"/>
</svg>
