<svg id="Capa_1" enable-background="new 0 0 512.18 512.18" height="512" viewBox="0 0 512.18 512.18" width="512" xmlns="http://www.w3.org/2000/svg"><g><path d="m504.68 17.609c-2.696-1.787-27.041-17.52-53.32-17.52s-50.625 15.732-53.32 17.52l-7.5 4.995.908 8.979c.126 1.291 11.14 115.053 14.145 240.506h91.534c3.005-125.453 14.019-239.215 14.145-240.506l.908-8.979z"/><path d="m497.095 392.09h-91.472c-.97 41.653-2.745 77.955-4.332 104.092l-.967 15.908h102.07l-.967-15.908c-1.587-26.137-3.361-62.439-4.332-104.092z"/><path d="m406.152 302.09c.126 9.981.125 50.178.005 60h90.403c-.119-9.822-.121-50.019.005-60z"/><path d="m315.18 122.09h-31.516c-6.641-45.817-42.731-81.96-88.484-88.612v-33.388h-30v33.388c-45.753 6.652-81.843 42.795-88.484 88.612h-31.516v30h270z"/><path d="m268.96 284.153c-1.47.403-2.844 1.018-4.347 1.34-8.027 1.201-12.715 1.597-16.934 1.597h-37.5c-10.43 0-20.625-2.168-30-6.27-9.375 4.102-19.57 6.27-30 6.27h-37.5c-4.219 0-8.936-.425-13.154-.952-2.866-.602-5.488-1.589-8.214-2.415 6.051 47.151 45.284 78.367 88.868 78.367 45.499 0 82.819-34.05 88.781-77.937z"/><path d="m300.174 269.637c.062-5.477.006 76.342.005 84.105 26.555-15.489 35.432-46.934 27.217-69.626l-10.862-34.779c-4.532 6.951-9.972 13.242-16.355 18.585-.046.323-.034.909-.005 1.715z"/><path d="m112.68 257.09h37.5c11.514 0 22.031-4.351 30-11.484 7.969 7.134 18.486 11.484 30 11.484h37.5c30.038 0 52.5-24.788 52.5-52.5 0-14.247-5.358-21.431-5.874-22.5h-228.245c-.465.962 1.452-3.369-3.935 8.553l.291.037c-9.98 34.666 17.423 66.41 50.263 66.41z"/><path d="m68.336 452.09h21.844v60h75v-121.498c-28.866-3.695-55.657-17.685-75-39.803.007 5.355 0 41.301 0 41.301h-45c-24.814 0-45.18 20.186-45.18 45v75h60.18v-60z"/><path d="m291.831 452.09h8.348v60h60v-75c0-24.814-20.186-45-45-45h-45s0-35.977 0-41.351c-18.86 22.007-45.495 36.156-75 39.954v121.397h75v-60z"/><path d="m60.18 353.742-.109-82.953.129.148c.013-1.728.043-2.888-.02-3.375-6.453-5.277-11.834-11.481-16.335-18.256l-10.648 34.166c-8.684 23.976.737 54.962 26.983 70.27z"/></g></svg>